<?xml version="1.0" standalone="no"?>
<!DOCTYPE svg PUBLIC "-//W3C//DTD SVG 1.1//EN" "http://www.w3.org/Graphics/SVG/1.1/DTD/svg11.dtd" >
<svg xmlns="http://www.w3.org/2000/svg">
<metadata>
Created by FontForge 20120731 at Fri May 23 10:42:04 2014
 By Ads
</metadata>
<defs>
<font id="iconfont" horiz-adv-x="1000" >
  <font-face 
    font-family="iconfont"
    font-weight="500"
    font-stretch="normal"
    units-per-em="1024"
    panose-1="2 0 6 3 0 0 0 0 0 0"
    ascent="812"
    descent="-212"
    x-height="792"
    bbox="-129 -456 2163 1095"
    underline-thickness="50"
    underline-position="-100"
    unicode-range="U+0078-F02C7"
  />
<missing-glyph horiz-adv-x="374" 
d="M34 0v682h272v-682h-272zM68 34h204v614h-204v-614z" />
    <glyph glyph-name=".notdef" horiz-adv-x="374" 
d="M34 0v682h272v-682h-272zM68 34h204v614h-204v-614z" />
    <glyph glyph-name=".null" horiz-adv-x="0" 
 />
    <glyph glyph-name="nonmarkingreturn" horiz-adv-x="341" 
 />
    <glyph glyph-name="x" unicode="x" horiz-adv-x="1001" 
d="M281 543q-27 -1 -53 -1h-83q-18 0 -36.5 -6t-32.5 -18.5t-23 -32t-9 -45.5v-76h912v41q0 16 -0.5 30t-0.5 18q0 13 -5 29t-17 29.5t-31.5 22.5t-49.5 9h-133v-97h-438v97zM955 310v-52q0 -23 0.5 -52t0.5 -58t-10.5 -47.5t-26 -30t-33 -16t-31.5 -4.5q-14 -1 -29.5 -0.5
t-29.5 0.5h-32l-45 128h-439l-44 -128h-29h-34q-20 0 -45 1q-25 0 -41 9.5t-25.5 23t-13.5 29.5t-4 30v167h911zM163 247q-12 0 -21 -8.5t-9 -21.5t9 -21.5t21 -8.5q13 0 22 8.5t9 21.5t-9 21.5t-22 8.5zM316 123q-8 -26 -14 -48q-5 -19 -10.5 -37t-7.5 -25t-3 -15t1 -14.5
t9.5 -10.5t21.5 -4h37h67h81h80h64h36q23 0 34 12t2 38q-5 13 -9.5 30.5t-9.5 34.5q-5 19 -11 39h-368zM336 498v228q0 11 2.5 23t10 21.5t20.5 15.5t34 6h188q31 0 51.5 -14.5t20.5 -52.5v-227h-327z" />
    <glyph glyph-name="uF0001" unicode="&#xf0001;" 
d="M500 -119q-67 0 -127.5 19.5t-112.5 54.5l-1 1q-5 3 -9.5 6.5t-9.5 7.5q-12 9 -23 19t-22 21l-14 14q-17 21 -32 41l-1 1q-1 2 -2 3t-2 3q-5 7 -8.5 13t-7.5 14q-29 52 -43 106t-14 109q0 37 5.5 72t16.5 67q0 1 1 1q4 11 8.5 22t8.5 22q38 81 104 140.5t151 87.5
q21 7 42 12q11 2 22.5 4t22.5 3q24 3 47 3q32 0 59.5 -3.5t53.5 -11.5q5 -2 11 -3.5t11 -3.5q32 -11 61 -26q5 -2 9 -5t9 -5q14 -8 26.5 -16.5t25.5 -18.5q4 -3 7.5 -6.5t7.5 -6.5q11 -10 21.5 -21t20.5 -22h1l12 -15q7 -9 13.5 -18t12.5 -19q1 -1 1 -2q1 -1 1 -1.5t1 -1.5
q31 -50 47.5 -107.5t16.5 -120.5q0 -90 -33.5 -168.5t-92 -137.5t-136.5 -93t-167 -34zM704 -45l124 112q23 32 40.5 67.5t27.5 74.5l-340 -305q40 6 77 19t71 32zM155 537l167 150q-104 -51 -167 -150zM376 709l-249 -223q-25 -52 -32 -110l393 352q-29 -1 -57.5 -6
t-54.5 -13zM517 728l-426 -381q-1 -8 -1 -17v-16q0 -23 3 -47l502 450q-40 10 -78 11zM618 711l-522 -467q3 -17 7.5 -33.5t9.5 -32.5l568 508q-16 8 -31.5 14t-31.5 11zM699 676l-579 -518q6 -14 13 -28t15 -28l603 539q-13 10 -25.5 18.5t-26.5 16.5zM766 629l-607 -544
q18 -27 37 -48l613 549q-20 23 -43 43zM821 571l-612 -548q22 -22 46 -40l600 537q-16 29 -34 51zM865 503l-594 -532q14 -9 27.5 -16.5t27.5 -15.5l564 504q-11 34 -25 60zM896 423l-550 -492q30 -13 67 -21l495 443q-3 35 -12 70zM437 -95q16 -2 31.5 -3.5t31.5 -1.5
q6 0 12 0.5t11 0.5l381 340q6 36 6 73v14z" />
    <glyph glyph-name="uF0002" unicode="&#xf0002;" 
d="M984 669v-341h16v-51h-16v-345h16v-51h-51v16h-425v-16h-50v16h-423v-16h-51v51h14v370h-14v51h14v316h-14v51h51v-11h423v11h50v-11h425v11h51v-51h-16zM461 690q3 -2 6 -2.5t7 -2.5v5h-13zM32 669v-187q26 73 80.5 127.5t127.5 80.5h-189v-21h-19zM965 -27
q-19 -35 -57 -57h41v16h16v41zM836 -84q27 0 50.5 10t41 27.5t27.5 41t10 50.5t-10 50.5t-27.5 41t-41 27.5t-50.5 10t-50.5 -10t-41 -27.5t-27.5 -41t-10 -50.5t10 -50.5t27.5 -41t41 -27.5t50.5 -10zM965 328v341h-16v21h-425v-21h-17q40 -21 73 -52.5t56.5 -69.5
t36.5 -82.5t13 -92.5q0 -69 -26.5 -130.5t-72 -107t-107 -72t-130.5 -26.5q-55 0 -105 17t-91.5 47t-73 71.5t-48.5 90.5v-330h19v-16h423v16h50v-16h240q-34 20 -55 53.5t-21 75.5q0 31 11.5 58t31.5 47t47 31.5t58 11.5q42 0 76 -20.5t53 -55.5v160h-16v51h16z" />
    <glyph glyph-name="uF0003" unicode="&#xf0003;" 
d="M828 330l-40 -44l40 -46q4 -4 -1 -9q-1 -1 -4 -1t-5 2l-38 44l-39 -44q-2 -2 -4 -2q-3 0 -5 1q-4 5 0 9l39 46l-39 44q-4 5 0 9q6 4 9 -1l39 -43l38 43q3 5 9 1q5 -3 1 -9zM427 -200l-13 14q52 37 94.5 85t73.5 104.5t49.5 120t21.5 131.5q0 11 10 9q9 0 9 -9
q-4 -71 -23 -136t-50.5 -123t-75 -107.5t-96.5 -88.5zM663 313q-10 -2 -10 8q-1 12 -2 23.5t-3 22.5q-9 67 -33 128t-60 114t-82.5 97.5t-101.5 77.5l9 16q114 -69 190.5 -180.5t96.5 -250.5q2 -11 2.5 -23t1.5 -24q2 -9 -8 -9z" />
    <glyph glyph-name="uF0004" unicode="&#xf0004;" 
d="M970 675q11 1 19 -6t9 -18t-6 -19t-18 -9t-18.5 5.5t-9.5 17.5l-220 42q63 -24 102 -75.5t49 -130.5h29v-80h-26v-603l-25 12v591h-29v80h24q-13 80 -62 131t-130 65q-13 -21 -39 -24q-17 -1 -30 7.5t-20 22.5h-569l4 25h561q0 7 1 10l-223 43q-3 -6 -8.5 -10.5
t-13.5 -4.5q-11 -2 -19 5t-9 18t6 19t18 10q11 1 19 -6t9 -18l227 -44q13 22 39 25q20 2 35 -10.5t19 -32.5l283 -54q6 14 22 16zM680 312v-80h-38v-368l-16 7v361h-26v80h22q-22 94 -116 111v-31h-80v35h-344l3 16h341v29h80v-31q63 -7 94.5 -39.5t39.5 -89.5h40z" />
    <glyph glyph-name="uF0005" unicode="&#xf0005;" 
d="M840 747q38 0 64 -26t26 -64v-677q0 -38 -26 -64t-64 -26h-677q-38 0 -64 26t-26 64v677q0 38 26 64t64 26h677zM195 654q-33 3 -29 -32q2 -20 5 -43.5t5.5 -48.5t5.5 -48.5t5 -41.5q2 -19 11.5 -22t21.5 9q8 8 19 18.5t18 17.5q9 9 19 4t23 -18q19 -19 32.5 -31.5
t27.5 -26.5q14 -15 24.5 -18.5t25.5 10.5q10 11 14 15l13 13q15 16 10 29t-14 22q-20 20 -35 33.5t-34 33.5q-9 9 -12 16.5t6 16.5q8 8 18 19t18 19q12 12 6.5 22t-26.5 12q-20 2 -43.5 4.5t-47 5.5t-46.5 5.5t-41 4.5zM431 175q15 15 17 27t-13 27q-11 10 -15 14l-13 13
q-15 15 -27 8.5t-21 -14.5q-20 -21 -36 -37.5t-36 -36.5q-9 -9 -14.5 -10t-14.5 7q-8 8 -20.5 19.5t-19.5 19.5q-13 12 -23 6.5t-12 -26.5q-2 -20 -4.5 -43.5t-5.5 -47.5t-5.5 -46.5t-3.5 -40.5q-3 -33 31 -29q20 2 44 5t48.5 5.5t48 5.5t42.5 5q18 2 21 11.5t-9 21.5
q-7 8 -16 17.5t-16 16.5q-9 9 -6 17t16 21q19 19 34 34.5t29 29.5zM808 -20q33 -3 29 32q-2 19 -5 43t-5.5 49t-5.5 48.5t-5 41.5q-2 19 -11.5 22t-21.5 -9q-8 -7 -17.5 -16t-16.5 -16q-9 -9 -19 -4.5t-23 18.5q-19 18 -34.5 33t-29.5 29q-15 15 -27 17t-26 -13
q-11 -10 -14.5 -14t-12.5 -14q-16 -15 -9.5 -27t15.5 -21q20 -20 36.5 -36t36.5 -36q9 -9 12 -16.5t-5 -15.5t-19.5 -20.5t-19.5 -20.5q-13 -12 -7 -22t27 -12q20 -2 43.5 -4.5t47 -5.5t46.5 -5.5t41 -4.5zM838 625q2 18 -6 25t-26 5q-20 -2 -43.5 -5t-48.5 -5.5t-48.5 -5.5
t-41.5 -5q-19 -2 -22 -12t9 -22q8 -7 18 -18t17 -17q9 -9 4 -19t-18 -24q-19 -18 -33 -32.5t-28 -28.5q-14 -15 -17 -26t11 -25q10 -11 14.5 -14.5t13.5 -12.5q16 -16 29 -10.5t22 13.5q20 21 34.5 36.5t34.5 35.5q9 9 16.5 11.5t16.5 -5.5q8 -8 19 -18t19 -18
q12 -13 22 -7.5t12 27.5q2 20 4.5 43.5t5.5 47t6 45.5z" />
    <glyph glyph-name="uF000A" unicode="&#xf000a;" 
d="M75 288v166l273 180l68 -131l171 134l70 -132l172 129l93 -138l-3 -217l-131 151l-180 -131l-67 134l-180 -126l-76 129zM75 -86v165l273 180l68 -131l171 134l70 -132l172 129l93 -137l-3 -218l-131 152l-180 -132l-67 134l-180 -126l-76 130z" />
    <glyph glyph-name="uF000B" unicode="&#xf000b;" 
d="M551 338q10 112 53 204t110 154h164q-67 -62 -105 -154t-46 -204h131v-148h-128q11 -103 49.5 -187.5t101.5 -141.5h-163q-63 57 -106.5 141.5t-57.5 187.5h-107q-14 -103 -57 -187.5t-107 -141.5h-163q63 57 101.5 141.5t49.5 187.5h-139v148h143q-8 112 -46 204
t-105 154h163q67 -62 110.5 -154t52.5 -204h101z" />
    <glyph glyph-name="uF000C" unicode="&#xf000c;" 
d="M720 276q25 0 51 -12t46.5 -35t33.5 -56.5t13 -76.5q0 -45 -23 -82.5t-59.5 -60.5t-81.5 -28.5t-90 14.5q-18 -41 -40 -80t-52 -68.5t-68.5 -45.5t-88.5 -9q-9 1 -16 2.5t-12 3.5q-6 2 -10 4l17 144q17 -2 36 3t35.5 13t28.5 18t15 19q8 22 17.5 52.5t22.5 64.5
q-14 27 -24.5 60t-18.5 74q-4 21 -6.5 49.5t-4 57.5t-3 57t-4 50t-6.5 34.5t-10 10.5q-12 2 -20.5 -23t-14.5 -62.5t-9.5 -78.5t-4.5 -70h-134q-2 77 -4.5 122.5t-6.5 73.5t-10.5 45.5t-18.5 38.5q-5 9 -14.5 15t-18.5 9q-11 4 -23 5v135q28 0 51.5 -9t43 -24.5t35 -36
t27.5 -42.5l5 11q6 12 16 29t25.5 32.5t36.5 26.5t49 11q37 0 62 -20t41.5 -53.5t26.5 -77.5t16.5 -92t11.5 -97t12 -93q25 22 55 35t67 13zM716 74q5 1 10 8.5t6.5 15.5t-3.5 15t-21 7q-11 -2 -20.5 -13.5t-19.5 -30.5q20 -9 48 -2z" />
    <glyph glyph-name="uF000D" unicode="&#xf000d;" 
d="M384 533q0 12 -2 23.5t-7 22.5q-5 7 -9.5 7.5t-8.5 -1.5q-6 -3 -11 -13t-5 -28q1 -125 -1.5 -254t-4.5 -253h-162v496q0 34 -16 58.5t-59 24.5h-18q27 31 56.5 45t73.5 14q29 0 54 -10.5t43 -29.5l4 3l5 4q26 20 54 26.5t51 6.5q28 0 53 -10.5t44 -29.5l3 3l5 4
q26 20 54 26.5t51 6.5q26 0 49.5 -9t41 -25t28.5 -38t11 -49q2 -62 0 -151q6 17 15 35t21.5 33t28.5 24.5t37 9.5q17 0 40.5 -4.5t45 -31t36.5 -83.5t15 -161q0 -76 -17.5 -136t-44 -105.5t-57.5 -78t-58 -53.5q7 -3 14 -4t15 -1q19 0 35 6t29 14q14 9 27 21v-57
q-6 -16 -24 -28q-15 -11 -43 -19.5t-76 -8.5q-53 0 -92 17q-29 -10 -59 -17t-55 -12q-29 -6 -57 -10v62q14 0 31 4q14 3 33.5 8t42.5 15q-14 19 -23 42.5t-14.5 48.5t-8.5 51.5t-4 52.5v17v479q0 12 -2 23.5t-7 22.5q-4 7 -8.5 8t-8.5 -1q-5 -3 -10.5 -11.5t-6.5 -24.5
q1 -57 0.5 -123.5t-1.5 -134.5t-2.5 -134t-2.5 -121h-161v496zM759 245v-4v-17q-1 -56 -2 -104t-1 -83q0 -33 2.5 -59.5t7.5 -46.5q38 43 63 109.5t25 163.5q0 92 -7 137t-17 57t-22 -2t-23 -40t-18 -57.5t-8 -53.5z" />
    <glyph glyph-name="uF000E" unicode="&#xf000e;" 
d="M342 122q18 0 30 12.5t12 29.5t-12 29.5t-30 12.5q-17 0 -29 -12.5t-12 -29.5t12 -29.5t29 -12.5zM141 164q0 41 15.5 77t42.5 63.5t63 43.5t77 16q-3 24 -3 51q2 65 26.5 111t62.5 73.5t85.5 38t95 4.5t90.5 -28t72.5 -58t41 -86t-3.5 -113q-23 -94 -59 -181t-73 -168
q-17 -38 -15.5 -56.5t11.5 -23.5t21.5 1t14.5 18l154 -3q-1 -48 -21.5 -82t-52.5 -53.5t-71.5 -25t-77 3t-69 30.5t-49 58t-16 85.5t29.5 111.5q38 82 68.5 161.5t54.5 159.5q9 30 -5 53.5t-38 34.5t-52 8.5t-46.5 -22.5t-22 -60.5t21.5 -105.5q11 -28 19 -60.5t8 -66.5v-10
q0 -42 -16 -78.5t-43 -63.5t-63.5 -42.5t-77.5 -15.5t-77.5 15.5t-63.5 42.5t-43 63.5t-16 78.5z" />
    <glyph glyph-name="uF000F" unicode="&#xf000f;" 
d="M111 454q27 45 72.5 82.5t104 64.5t126.5 42t142 15q98 0 185 -24.5t167 -82.5l1 -172q-54 41 -114 70.5t-123 43.5t-128.5 10.5t-129.5 -28.5q23 -26 37 -59.5t14 -71.5q0 -40 -15.5 -75.5t-41.5 -61.5t-61.5 -41.5t-75.5 -15.5t-75.5 15.5t-61.5 41.5t-41.5 61.5
t-15.5 75.5q0 62 34 110zM270 306q17 0 28.5 11.5t11.5 28.5t-11.5 28.5t-28.5 11.5t-28.5 -11.5t-11.5 -28.5t11.5 -28.5t28.5 -11.5zM734 221q-17 0 -28.5 -11.5t-11.5 -28.5t11.5 -28.5t28.5 -11.5t28.5 11.5t11.5 28.5t-11.5 28.5t-28.5 11.5zM893 73
q-27 -45 -72.5 -82.5t-104 -64.5t-127 -42t-141.5 -15q-98 0 -185 24.5t-167 82.5l-1 172q54 -41 114 -70.5t123 -43.5t128 -10.5t130 28.5q-23 26 -37 59.5t-14 71.5q0 40 15.5 75.5t41.5 61.5t61.5 41.5t75.5 15.5t75.5 -15.5t61.5 -41.5t41.5 -61.5t15.5 -75.5
q0 -31 -9 -59t-25 -51z" />
    <glyph glyph-name="uF0010" unicode="&#xf0010;" 
d="M800 -234q-42 0 -73 9q-23 7 -43.5 20t-43.5 46q-2 3 -4.5 6t-4.5 7l-2 3q-22 38 -29.5 85t-9.5 94l-1 17v480q0 11 -1.5 23t-6.5 23q-8 11 -18 6q-5 -2 -10 -10.5t-7 -24.5q1 -57 0.5 -124t-1.5 -135t-2 -134t-2 -121h-162v497q0 11 -2 23t-7 23q-7 12 -18 6
q-5 -3 -10.5 -13t-5.5 -28q1 -125 -1.5 -254t-4.5 -254h-162v497q0 33 -16 58t-59 25h-18q27 31 56.5 45t74.5 14q28 0 53 -10.5t43 -29.5l4 3l5 4q26 20 54 26.5t51 6.5q29 0 54 -10.5t43 -29.5l4 3l4 4q26 20 54.5 26.5t51.5 6.5q25 0 48.5 -9t41.5 -25t29 -38.5t11 -49.5
v-62q0 -33 -0.5 -82.5t-1 -105t-0.5 -112.5t-0.5 -103.5t0 -79t1.5 -38.5l2 -12l3 -15q8 -29 17.5 -48t22 -29.5t28.5 -14t36 -3.5q17 2 33 7.5t28 12.5l-34 62l151 -5l-60 -161q0 1 -8.5 16t-19.5 37q-6 -7 -16.5 -16t-28.5 -16.5t-45 -13t-65 -5.5z" />
    <glyph glyph-name="uF0011" unicode="&#xf0011;" 
d="M526 -126l-143 142l-178 -178l-103 102l179 179q-41 40 -67 67l-43 42l-23 24q-8 7 -9 9l102 102l142 -142l228 228q-61 15 -99 24.5t-59.5 15t-29.5 7.5l-10 2q-2 1 -0.5 0.5t-0.5 0.5l35 140l363 -90l89 -362l-141 -35l-48 191l-224 -224l142 -143z" />
    <glyph glyph-name="uF0012" unicode="&#xf0012;" 
d="M111 74h778v-145h-778v145zM565 192v89q32 18 51.5 49.5t19.5 69.5q0 28 -10.5 52.5t-29 42.5t-43.5 28.5t-53 10.5q-29 0 -53.5 -10.5t-43.5 -28.5t-29.5 -42.5t-10.5 -52.5q0 -38 19 -69t50 -48v-91v-56h-321v146h116q-13 27 -20 56.5t-7 61.5q0 58 23.5 110t64 90
t95.5 60.5t117 22.5t117 -22.5t95.5 -60.5t64 -90t23.5 -110q0 -32 -7 -61.5t-20 -56.5h116v-146h-324v56z" />
    <glyph glyph-name="uF0013" unicode="&#xf0013;" 
d="M140 2q62 19 124 29v415q-62 10 -124 29v156q91 -27 176.5 -39t181.5 -12q102 0 192.5 13.5t187.5 44.5v-156q-34 -11 -67.5 -19.5t-68.5 -15.5v-417q35 -7 68.5 -15.5t67.5 -19.5v-156q-97 31 -187.5 44.5t-192.5 13.5q-96 0 -181.5 -12t-176.5 -39v156zM498 51
q13 0 34 -0.5t33 -0.5v377h-67h-58v-377q11 0 29.5 0.5t28.5 0.5z" />
    <glyph glyph-name="uF0014" unicode="&#xf0014;" 
d="M90 657q19 5 45 3q22 -2 53 -10t73 -29q28 -15 51.5 -36.5t43.5 -46t38 -48.5t36 -43.5t36.5 -32t40.5 -12.5t41 12.5t37 32t36 43.5t38 48.5t43.5 46t51.5 36.5q41 21 72.5 29t53.5 10q26 2 45 -3v-158q-21 1 -40 -2q-17 -2 -36 -7t-33 -16q-11 -8 -26 -25.5t-32.5 -39
t-37 -44t-37.5 -40.5q54 -39 86.5 -98t32.5 -128q0 -59 -23.5 -110.5t-64 -89.5t-95.5 -60.5t-117 -22.5t-117 22.5t-95.5 60.5t-64 89.5t-23.5 110.5q0 72 34 132t91 98q-18 18 -36 40t-35.5 43t-32 37.5t-24.5 24.5q-15 11 -33.5 16t-35.5 7q-19 3 -40 2v158zM366 100
q0 -28 10.5 -52.5t29 -43t43.5 -29t53 -10.5t53 10.5t44 29t29.5 43t10.5 52.5t-10.5 52.5t-29.5 42.5t-44 28.5t-53 10.5t-53 -10.5t-43.5 -28.5t-29 -42.5t-10.5 -52.5z" />
    <glyph glyph-name="uF0015" unicode="&#xf0015;" 
d="M324 304h-156q-47 37 -71 88.5t-27 103.5t13.5 99.5t50.5 77t84 35t113 -24.5q60 -29 100.5 -88t67.5 -135q26 76 66.5 135t100.5 88q64 30 114 24.5t84 -35t50.5 -77t13.5 -99.5t-27 -103.5t-71 -88.5h-157q13 23 24 42q9 17 17.5 31.5t10.5 19.5q3 7 11 29.5t11.5 44
t-2.5 32.5t-32 -6q-35 -23 -57.5 -70.5t-36.5 -102.5t-20.5 -108.5t-10.5 -89.5t-7 -75.5t-5 -71.5q-3 -39 -4 -75h-9h-128h-9q-1 36 -4 75q-2 32 -5.5 71.5t-7.5 75.5t-10.5 89.5t-20.5 108.5t-36.5 102.5t-57.5 70.5q-26 17 -32 6t-2.5 -32.5t11.5 -44t11 -29.5
q2 -5 10.5 -19.5t17.5 -31.5q11 -19 24 -42z" />
    <glyph glyph-name="uF0020" unicode="&#xf0020;" 
d="M1000 123q0 -25 -8.5 -47t-24 -39.5t-36 -29.5t-44.5 -16l1 -1h-17h-4h-4h-660q-5 -1 -16 -1q-39 0 -73 15t-59.5 40.5t-40 59.5t-14.5 73t14.5 73t40 59.5t59.5 40.5t73 15h1q-1 8 -1 15v16q0 71 27 134t74 109.5t109.5 73.5t133.5 27t134 -27t110 -73.5t74 -109.5
t27 -134q0 -37 -8 -72.5t-22 -67.5q5 1 10.5 1.5t10.5 0.5q27 0 51.5 -10.5t42.5 -29t28.5 -43t10.5 -52.5zM650 242q20 0 26 4.5t-8 21.5q-14 18 -31 47t-35.5 59t-37.5 56t-37 38q-18 13 -26.5 14t-24.5 -12q-18 -15 -35 -38t-34.5 -49t-35 -51t-35.5 -44q-18 -18 -13 -32
t25 -14h16q9 0 19.5 -0.5t20.5 -0.5h17q14 -1 18 -9.5t4 -23.5q0 -17 -0.5 -30t-0.5 -25t-0.5 -25t-0.5 -30q0 -7 1.5 -15t5.5 -15t12 -11.5t21 -4.5h23q9 0 27 -1q24 0 27.5 12t3.5 38q0 23 0.5 41.5t0.5 50.5q0 23 4.5 35.5t19.5 12.5q11 0 31.5 0.5t31.5 0.5z" />
    <glyph glyph-name="uF0021" unicode="&#xf0021;" 
d="M870 738q28 0 51.5 -10.5t41 -28.5t27.5 -42.5t10 -52.5v-606q0 -28 -10 -52.5t-27.5 -42.5t-41 -28.5t-51.5 -10.5h-673q-28 0 -52.5 10.5t-42.5 28.5t-28.5 42.5t-10.5 52.5v606q0 28 10.5 52.5t28.5 42.5t42.5 28.5t52.5 10.5h673zM250 551q9 0 27 -0.5t42 -0.5h51h54
q63 0 138 1v62h-124v63h-63v-63h-125v-62zM369 448q-8 15 -15 29q-6 12 -12 24.5t-9 20.5l-57 -21l32 -75zM249 61l99 140l-65 26l-96 -142zM438 239h124v61h-44h-80v63q23 0 45 -0.5t40 -0.5h40v62h-65q-19 0 -40 1l67 64l-67 32l-20 -96h-251v-62h35h46h52h55v-63h-125
v-61h40q18 0 40 -0.5t45 0.5v-126q0 -16 -2 -26.5t-10 -15t-24.5 -4.5t-46.5 5q25 -31 27 -70q13 2 33.5 1t39.5 1.5t32.5 12.5t13.5 34v188zM555 131q-16 19 -29 37q-11 15 -23 29.5t-18 22.5l-45 -30l63 -96zM875 429q-20 1 -52 0.5t-62 -1.5q-36 -1 -74 -3v126
q48 0 83.5 4.5t58.5 9.5q27 6 45 14q-18 27 -29 45q-5 8 -9.5 15t-7.5 11t-3.5 4.5t1.5 -4.5q-21 -16 -56 -23.5t-68 -10.5t-56 -3t-21 0q1 -16 1.5 -43t0 -76t-1 -126t-0.5 -192q0 -13 -3 -32.5t-10 -39t-19.5 -34.5t-30.5 -19q12 -3 21 -11.5t16.5 -18t13.5 -19t12 -14.5
q12 18 23 41.5t20 49t14 51t5 46.5v40v42v46v59h63v-375h62v375q23 -1 34.5 -0.5t28.5 -3.5v70z" />
    <glyph glyph-name="uF0022" unicode="&#xf0022;" 
d="M1127 533l-663 -663l-331 331l663 663zM0 68l331 -331h-331v331z" />
    <glyph glyph-name="uF0023" unicode="&#xf0023;" 
d="M532 535l465 -467h-199v-331h-533l-1 331h-196zM1063 864v-133h-1063v133h1063z" />
    <glyph glyph-name="uF0024" unicode="&#xf0024;" 
d="M268 431q-27 0 -34.5 14.5t10.5 37.5q19 24 44 58t52 70.5t52.5 71t45.5 59.5q18 23 34.5 24t35.5 -21q19 -23 43.5 -55.5t50.5 -68t51.5 -69.5t45.5 -59q22 -27 17 -45t-33 -17q-17 0 -44 -1t-45 -1q-20 -1 -24.5 -12.5t-4.5 -31.5v-49q0 -27 0.5 -55t0.5 -55v-50
q0 -10 -1.5 -21t-7 -20t-16 -15t-28.5 -6q-21 0 -38.5 -0.5t-41.5 -0.5q-33 0 -44.5 15.5t-11.5 49.5v39q0 23 -0.5 49t-0.5 52v47q0 30 -6 47.5t-27 16.5q-15 0 -36.5 1t-38.5 1zM939 -80q6 -24 -2.5 -46t-26.5 -38.5t-44 -26t-56 -9.5h-678q-36 0 -63.5 13t-44 32
t-22 41.5t1.5 40.5q6 14 12 29q5 13 12 29.5t15 33.5l38 92h114l-43 -126h644l-43 126h109q21 -51 38 -92q7 -18 14 -35t12.5 -30.5t9 -23t3.5 -10.5z" />
    <glyph glyph-name="uF0025" unicode="&#xf0025;" 
d="M872 675q28 0 47.5 -19.5t19.5 -47.5v-51q0 -28 -19.5 -47.5t-47.5 -19.5h-742q-28 0 -47.5 19.5t-19.5 47.5v51q0 28 19.5 47.5t47.5 19.5h742zM872 362q28 0 47.5 -19.5t19.5 -47.5v-51q0 -28 -19.5 -47.5t-47.5 -19.5h-742q-28 0 -47.5 19.5t-19.5 47.5v51
q0 28 19.5 47.5t47.5 19.5h742zM872 49q28 0 47.5 -19.5t19.5 -47.5v-51q0 -28 -19.5 -47.5t-47.5 -19.5h-742q-28 0 -47.5 19.5t-19.5 47.5v51q0 28 19.5 47.5t47.5 19.5h742z" />
    <glyph glyph-name="uF0026" unicode="&#xf0026;" 
d="M0 -200l104 463l575 36l-575 39l-104 462l1000 -500z" />
    <glyph glyph-name="uF0029" unicode="&#xf0029;" 
d="M500 715q86 0 161.5 -32.5t131.5 -89t88.5 -132t32.5 -161.5t-32.5 -161t-88.5 -131.5t-131.5 -89t-161.5 -32.5t-161 32.5t-131.5 89t-89 131.5t-32.5 161t32.5 161.5t89 132t131.5 89t161 32.5zM743 112q5 14 8 31.5t5 37.5q-14 5 -27.5 10.5t-27.5 11.5q-1 -12 -3 -27
t-5 -34q-5 -30 -44 -30h-30q-40 -3 -37 34v135l76 2l35 -35l45 40q-39 35 -77.5 69t-76.5 66l-39 -30q5 -5 12.5 -11.5t17.5 -16.5q22 -19 31 -31l-236 -6q54 45 128 119h251v55h-211q-1 3 -2 9l-4 14q-5 16 -8.5 26t-4.5 16l-66 -7q2 -5 5 -15t8 -24q5 -15 6 -19h-232v-55
h180q-47 -52 -96 -91q-22 -22 -52 -35l29 -55q8 2 23.5 4t41.5 4h24q0 -75 -33 -108q-29 -35 -124 -65q2 -4 5 -8.5t8 -11.5q8 -11 13.5 -19t8.5 -14q194 60 182 231l73 2v-152q-2 -70 72 -67h65q71 -3 83 50z" />
    <glyph glyph-name="uF002A" unicode="&#xf002a;" 
d="M668 520q15 0 36 10t44 19.5t45 13t40 -11t29 -51.5t11 -108v-452q0 -29 -13 -54.5t-36 -44.5t-55 -30t-70 -11h-414q-28 0 -54.5 11t-47 30t-33 44.5t-12.5 54.5v452q2 70 14 106.5t31 50.5t41.5 11.5t44.5 -11.5t40.5 -19t29.5 -10h27q10 0 18.5 5t14.5 13t9 17t3 17
v278h-9q-13 0 -22 8t-9 19t9 19t22 8h9v17h-9q-13 0 -22 8t-9 19t9 19t22 8h9v8q0 2 0.5 4.5t0.5 4.5h-10q-13 0 -22 8t-9 19t9 19t22 8h18q10 26 38.5 37.5t88.5 11.5q46 0 70 -6.5t34.5 -20.5t12 -35t1.5 -50v-70q0 -30 -10.5 -42.5t-23.5 -20.5t-23 -18t-8 -35v-225
q0 -18 14.5 -35t31.5 -17h22zM628 -23q0 15 -12.5 26t-29.5 11h-160q-18 0 -30.5 -11t-12.5 -26v-2q0 -15 12.5 -26t30.5 -11h160q17 0 29.5 11t12.5 26v2zM509 68q35 0 66 13.5t54 36.5t36.5 54.5t13.5 66.5t-13.5 66t-36.5 54t-54 36.5t-66 13.5t-65.5 -13.5t-53.5 -36.5
t-36.5 -54t-13.5 -66t13.5 -66.5t36.5 -54.5t53.5 -36.5t65.5 -13.5zM509 357q24 0 45.5 -9.5t37.5 -25.5t25.5 -37.5t9.5 -45.5t-9.5 -45.5t-25.5 -37.5t-37.5 -25.5t-45.5 -9.5t-45.5 9.5t-37 25.5t-25 37.5t-9.5 45.5t9.5 45.5t25 37.5t37 25.5t45.5 9.5z" />
    <glyph glyph-name="uF002B" unicode="&#xf002b;" 
d="M320 689q23 0 40 -16.5t17 -40.5v-776q0 -23 -17 -39.5t-40 -16.5h-132q-24 0 -40.5 16.5t-16.5 39.5v776q0 24 16.5 40.5t40.5 16.5h132zM339 264q0 8 -6 14t-14 6t-13.5 -6t-5.5 -14v-102q0 -8 5.5 -14t13.5 -6t14 6t6 14v102zM801 689q24 0 40.5 -18t16.5 -50v-776
q0 -15 -16.5 -30t-40.5 -15h-315q-24 0 -40.5 16.5t-16.5 39.5v776q0 24 16.5 40.5t40.5 16.5h315zM507 264q0 8 -5.5 14t-13.5 6t-14 -6t-6 -14v-102q0 -8 6 -14t14 -6t13.5 6t5.5 14v102zM754 529q0 17 -9 28t-23 11h-150q-14 0 -23 -11t-9 -28v-103q0 -17 9 -28.5
t23 -11.5h150q14 0 23 11.5t9 28.5v103z" />
    <glyph glyph-name="uF002C" unicode="&#xf002c;" 
d="M189 -94h462v-51q0 -20 -15 -37.5t-44 -17.5h-343q-26 0 -43 16t-17 39v51zM810 323q34 0 66 -4.5t54 -19.5t31.5 -43t0.5 -76q-10 -50 -29.5 -76t-45 -37.5t-55 -11.5t-60.5 2q-11 -18 -25 -32.5t-30 -28t-32.5 -28t-33.5 -32.5h-462q-22 31 -49 52t-50 48.5t-39 70.5
t-16 117v105q0 20 7 30t16 15q11 5 24 7h681q12 -2 23 -7q9 -5 16.5 -15t7.5 -30v-6zM246 459q-2 -15 -13 -22.5t-23.5 -7.5t-23 7.5t-10.5 22.5q0 35 3.5 57.5t6.5 42.5q5 29 17.5 49t26 36.5t24.5 32t14 36.5q4 30 5.5 47.5t5 26t10.5 10.5t23 2t23 -11.5t8 -29t-2 -37
t-6 -34.5q-2 -14 -9.5 -28.5t-17.5 -30t-20 -30.5t-18 -29q-9 -15 -14 -37.5t-10 -72.5zM435 459q-2 -15 -13 -22.5t-23.5 -7.5t-23 7.5t-10.5 22.5q0 35 3.5 57.5t7.5 42.5q5 29 17.5 49t25.5 36.5t24 32t14 36.5q4 30 6 47.5t5.5 26t10.5 10.5t23 2t22.5 -11.5t7.5 -29
t-1.5 -37t-5.5 -34.5q-3 -14 -10.5 -28.5t-17 -30t-20 -30.5t-18.5 -29q-9 -15 -14 -37.5t-10 -72.5zM625 459q-2 -15 -13 -22.5t-23.5 -7.5t-23 7.5t-10.5 22.5q0 35 3 57.5t7 42.5q5 29 17.5 49t26 36.5t24.5 32t14 36.5q4 30 5.5 47.5t5 26t10.5 10.5t23 2t23 -11.5
t8 -29t-2 -37t-6 -34.5q-3 -14 -10.5 -28.5t-17 -30t-19.5 -30.5t-18 -29q-5 -8 -8.5 -16.5t-6 -21t-4.5 -30t-5 -42.5z" />
    <glyph glyph-name="uF002D" unicode="&#xf002d;" 
d="M297 437q-14 0 -21 5t-10 12q-4 8 -4 18v66q0 19 7.5 28.5t16.5 14.5q11 5 24 5h387q13 0 24 -5q9 -5 16.5 -14.5t7.5 -28.5v-66q0 -10 -4 -18q-3 -7 -9.5 -12t-20.5 -5h-414zM818 -121q0 -22 -8 -40q-7 -15 -21.5 -27t-41.5 -12h-486q-28 0 -42 12t-21 27q-8 18 -9 40
v374q0 33 12 47t22 24l71 66h433l57 -66q10 -10 22 -24t12 -47v-374zM662 137h-105v106h-107v-106h-105v-107h105v-105h107v105h105v107z" />
    <glyph glyph-name="uF0030" unicode="&#xf0030;" 
d="M1000 754v-556q0 -50 -25 -99.5t-65.5 -96t-92.5 -88t-105.5 -74t-104 -54t-88.5 -29.5l-12 -2l-11 2q-39 8 -90.5 29.5t-107 54t-109 74t-95.5 88t-68 96t-26 99.5v556l41 6l460 86l469 -86zM501 724l-5 1l-359 -61v-319h364v379zM863 345h-362v-454q35 8 76 24.5t81 39
t77 50t65.5 59t45.5 65.5t17 69v147z" />
    <glyph glyph-name="uF0031" unicode="&#xf0031;" 
d="M545 846q113 0 212 -43t173 -117t117 -173.5t43 -212.5t-43 -212t-117 -173t-173 -117t-212 -43t-212 43t-173 117t-117 173t-43 212t43 212.5t117 173.5t173 117t212 43zM580 -77q30 0 51.5 21.5t21.5 51.5q0 31 -21.5 52.5t-51.5 21.5t-51.5 -21.5t-21.5 -52.5
q0 -30 21.5 -51.5t51.5 -21.5zM650 220q0 14 20.5 34t45.5 48.5t45.5 67.5t20.5 92q0 35 -13.5 73t-43 70t-76 52.5t-112.5 20.5q-51 0 -88 -12.5t-62 -33t-41 -46.5t-24 -53t-11 -52t-3 -44q0 -26 22 -37t48 -9t48 15.5t22 36.5q0 14 2 32t10.5 33.5t27 26t51.5 10.5
q51 0 81.5 -28.5t30.5 -67.5q0 -21 -10 -41t-25 -38.5t-33 -35t-33 -30.5t-25 -25t-10 -19v-79q0 -10 21 -15t46.5 -4.5t46.5 6t21 17.5v35z" />
    <glyph glyph-name="uF0032" unicode="&#xf0032;" 
d="M700 435q61 0 115.5 -23t95.5 -63t65 -93.5t24 -113.5t-24 -114t-65 -94.5t-95.5 -64t-115.5 -23.5t-114 23.5t-92 64t-61.5 94.5t-22.5 114t22.5 113.5t61.5 93.5t92 63t114 23zM865 174h-92l90 87l-45 45l-103 -97l33 -35h-108l32 43l-95 92l-38 -51l86 -84h-78v-56
h135v-44h-135v-48h135v-90h51v90h132v48h-132v44h132v56zM875 709q26 0 49 -10t40 -27t26.5 -39.5t9.5 -48.5v-148h-137q0 26 -12 37t-38 11h-611q-26 0 -45.5 -18t-19.5 -44v-376q0 -26 19.5 -44.5t45.5 -18.5h208v-137h-284q-26 0 -49 11.5t-40 31t-27 44t-10 50.5v601
q0 26 10 48.5t27 39.5t40 27t49 10h749z" />
    <glyph glyph-name="uF0033" unicode="&#xf0033;" 
d="M593 792q104 -9 195 -54.5t158 -117.5t105.5 -166.5t38.5 -200.5q0 -113 -43 -211.5t-116.5 -172.5t-173 -116.5t-211.5 -42.5q-113 0 -212.5 42.5t-173.5 116.5t-117 172.5t-43 211.5q0 93 29.5 176.5t82.5 151.5t125 118t158 74q-10 30 -24.5 59.5t-28.5 52.5t-25 37.5
t-13 14.5q77 -13 131 -36t88.5 -46.5t51 -41.5t18.5 -21zM305 521q-28 0 -47 -17t-19 -42q0 -24 19 -41t47 -17q27 0 46 17t19 41q0 25 -19 42t-46 17zM359 168q14 42 14.5 73t-22.5 54q-15 14 -24.5 23t-19.5 17.5t-23 18t-35 25.5l-42 -63l78 -47q13 -8 22 -19
q8 -10 10.5 -24t-6.5 -32q-8 -17 -30.5 -42.5t-45.5 -48.5q-27 -27 -59 -56l101 -62q26 56 39.5 84t20.5 43t11 25.5t11 30.5zM906 98q8 69 8 124t-3 94q-4 46 -10 80q-12 37 -58 59q-20 9 -48.5 16t-69.5 9t-94.5 -2.5t-122.5 -17.5q5 11 9.5 19.5t7.5 15.5q4 8 6 15
l-92 27q-12 -37 -28 -71q-14 -29 -34 -61t-45 -53q18 -10 33 -17q13 -7 23 -12t10 -4q14 13 26 26.5t23 27.5q11 5 22 9.5t22 9.5q-13 -23 -33 -53t-40 -53l39 -34l15 15l16 17q10 9 21 21h51l4 -73h-148v-42h148v-88h-5h-17q-12 0 -25 1t-23.5 3.5t-13.5 7.5
q-8 12 -4.5 32.5t4.5 34.5h-75l-9 -2q-7 -44 0 -78q3 -15 9 -28.5t17 -24t27.5 -17t40.5 -5.5q45 -1 81 6t63.5 18t47.5 23.5t32 21.5l13 -48l73 30l-46 113h26v42h-130v73h127v42h-228q12 15 23 31t13 24l-39 10q76 13 136 13q25 0 49.5 -2.5t43.5 -9.5t30.5 -19t11.5 -30
v-258q-2 -24 -13 -42q-10 -16 -31 -28t-59 -10l-55 9l-13 -40q68 -20 123 -17q24 1 47 7t41.5 19.5t31.5 36t17 57.5zM702 138q-21 -16 -52 -27v79h76l-35 -11z" />
    <glyph glyph-name="uF0034" unicode="&#xf0034;" 
d="M500 800q103 0 194.5 -39.5t159 -107t107 -159t39.5 -194.5t-39.5 -194t-107 -158.5t-159 -107t-194.5 -39.5q-69 0 -133 18t-119.5 50.5t-101 78t-78 101t-50.5 119t-18 132.5t18 133t50.5 119.5t78 101t101 78t119.5 50.5t133 18zM727 345h-182v182h-90v-182h-182v-90
h182v-182h90v182h182v90z" />
    <glyph glyph-name="uF0035" unicode="&#xf0035;" 
d="M250 722q-8 7 -13.5 16.5t-8 20t0 21t10.5 19.5q9 9 16 8t15.5 -5t20.5 -9t30 -5q16 0 25.5 9t18 19.5t18.5 19.5t27 9t26.5 -9t17.5 -19.5t18.5 -19t28.5 -8.5q15 0 24.5 8.5t18.5 19t19.5 19.5t27.5 9t27 -9t18 -19.5t17.5 -19.5t26.5 -9q18 0 29.5 5t20 9t15.5 5
t16 -8q8 -9 10 -19.5t0 -21t-8 -20t-13 -16.5q-8 -7 -24.5 -24t-33.5 -35q-20 -21 -42 -45h-149h-151q-23 24 -42 45q-17 18 -33.5 35t-24.5 24zM681 573q76 -43 136 -103q25 -26 50 -57.5t44 -70t31 -83t12 -95.5q0 -85 -26 -152t-81.5 -114t-141 -72t-204.5 -25
q-120 0 -206 25t-141.5 72t-81.5 114t-26 152q0 51 11.5 95.5t31 83t43.5 70t50 57.5q60 60 137 103h362zM727 255h-126l80 107l-37 28l-81 -108l36 -27h-154l38 28l-81 109l-38 -28l81 -109h-126v-45h182v-91h-182v-46h182v-91h44v91h182v46h-182v91h182v45z" />
    <glyph glyph-name="uF0036" unicode="&#xf0036;" 
d="M955 119q-7 -38 -27 -68q-17 -26 -51 -47t-92 -21q-38 0 -72 5t-60 17t-42.5 31.5t-19.5 47.5t8 58.5t33 55.5t53.5 41t68.5 16q63 0 110 -22v418l-454 -66l4 -557v-25q0 -30 -12 -58.5t-33.5 -50.5t-52 -35t-67.5 -13q-40 0 -74 7.5t-60 22t-42 36t-19 49.5t8 54.5
t33.5 47.5t54 35.5t68.5 18.5q28 4 55 0.5t51 -11.5v558l631 91v-636z" />
    <glyph glyph-name="uF0037" unicode="&#xf0037;" 
d="M864 755q17 0 33.5 -8t29 -20.5t20.5 -29t8 -33.5v-455h-727q-39 0 -65 -36.5t-27 -118.5q0 -44 7.5 -75t20 -50.5t29 -28.5t34.5 -9h39h85h114h128h343l19 -46h-728q-136 0 -136 137v682q0 17 7.5 33.5t20.5 29t29.5 20.5t33.5 8h410v-364l65 91l71 -91l1 364h135z
M955 163q-14 -15 -25 -33q-9 -16 -16.5 -38t-7.5 -49t7.5 -46.5t16.5 -33.5q11 -16 25 -27h-727q-17 0 -26 17.5t-14 38.5q-5 25 -6 56q1 31 6 57q5 22 13.5 40t25.5 18h728z" />
    <glyph glyph-name="uF0038" unicode="&#xf0038;" 
d="M954 -63q0 -19 -6.5 -35.5t-18.5 -29t-28 -19.5t-35 -7h-726q-19 0 -36 7t-30 19.5t-20.5 29t-7.5 35.5v499q0 38 26.5 64.5t64.5 26.5h726q38 0 64.5 -26.5t26.5 -64.5v-136h-227q-38 0 -64.5 -26t-26.5 -64q1 -26 11 -46q8 -17 26.5 -31t53.5 -14h227v-182zM818 573
h-454q54 28 102 54q42 22 83 44t64 34q35 19 62.5 17.5t46.5 -9.5q22 -11 38 -29zM682 210q0 19 13 32t32 13t32 -13t13 -32t-13 -32.5t-32 -13.5t-32 13.5t-13 32.5z" />
    <glyph glyph-name="uF0039" unicode="&#xf0039;" 
d="M410 755h91v-364q0 -9 -10.5 -17.5t-25.5 -15t-30.5 -10t-24.5 -3.5v-500q0 -19 -13.5 -32t-32.5 -13h-91q-19 0 -32 13t-13 32v500q-9 0 -24.5 3.5t-30.5 10t-25.5 15t-10.5 17.5v364h91v-319h45v319h91v-319h46v319zM728 755q136 0 136 -137v-773q0 -19 -13 -32
t-32 -13h-91q-19 0 -32.5 13t-13.5 32v364h-90v409q0 137 136 137z" />
    <glyph glyph-name="uF003A" unicode="&#xf003a;" 
d="M500 800q103 0 194 -39.5t158.5 -107t107 -158.5t39.5 -194t-39.5 -194t-107 -158.5t-158.5 -107t-194 -39.5q-69 0 -133 18t-119.5 50.5t-101 78t-78 101t-50.5 119t-18 132.5t18 132.5t50.5 119t78 101t101 78t119.5 50.5t133 18zM272 210q38 0 64.5 26.5t26.5 64.5
t-26.5 64.5t-64.5 26.5q-37 0 -63.5 -26.5t-26.5 -64.5t26.5 -64.5t63.5 -26.5zM500 -16q38 0 64.5 26t26.5 64t-26.5 64t-64.5 26q-19 0 -35.5 -7t-29 -19t-19.5 -28.5t-7 -35.5t7 -35.5t19.5 -28.5t29 -19t35.5 -7zM454 301q0 -19 13 -32.5t33 -13.5q19 0 32 13.5t13 32.5
t-13 32t-32 13q-20 0 -33 -13t-13 -32zM500 437q38 0 64.5 26.5t26.5 64.5t-26.5 64t-64.5 26q-19 0 -35.5 -7t-29 -19t-19.5 -28.5t-7 -35.5t7 -35.5t19.5 -29t29 -19.5t35.5 -7zM727 210q37 0 63.5 26.5t26.5 64.5t-26.5 64.5t-63.5 26.5q-38 0 -64.5 -26.5t-26.5 -64.5
t26.5 -64.5t64.5 -26.5z" />
    <glyph glyph-name="uF003B" unicode="&#xf003b;" 
d="M489 334q-21 0 -34 13q-13 14 -13 35q0 20 13 33q12 13 32 13q21 0 34 -13q13 -12 13 -33q0 -22 -13 -35q-12 -13 -32 -13zM537 240q19 -16 19 -44q0 -26 -18 -42q-19 -16 -48 -16q-30 0 -49 17q-19 18 -19 43t20 42q19 18 49 18q28 0 46 -18zM909 644q38 0 64.5 -26.5
t26.5 -64.5v-545q0 -38 -26.5 -64.5t-64.5 -26.5h-91v45h-46v-45h-681q-38 0 -64.5 26.5t-26.5 64.5v545q0 38 26.5 64.5t64.5 26.5h681v-46h46v46h91zM271 496h-121l-47 -76h79v-347h89v423zM618 125q18 30 18 67q0 34 -16 62q-15 30 -44 48q21 22 31 44q8 21 8 42
q0 34 -16 60q-17 29 -45 44q-29 15 -64 15q-39 0 -67 -15q-29 -15 -45 -43q-16 -26 -16 -60q0 -25 10 -46q8 -20 29 -41q-31 -23 -44 -49q-15 -29 -15 -61q0 -38 18 -69t49 -46q30 -15 82 -15q48 0 77 16q30 14 50 47zM818 98h-46v-45h46v45zM818 234h-46v-46h46v46z
M818 370h-46v-46h46v46zM818 506h-46v-45h46v45z" />
    <glyph glyph-name="uF003C" unicode="&#xf003c;" 
d="M501 118q-25 -35 -58 -68t-79 -58v126h137zM364 573h-91v45h46v137h363v-137h46v-45h-91v91h-273v-91zM864 527q38 0 64.5 -26.5t26.5 -64.5v-545q0 -38 -26.5 -64.5t-64.5 -26.5h-727q-38 0 -64.5 26.5t-26.5 64.5v545q0 38 26.5 64.5t64.5 26.5h727zM773 163h-182v46
h137v182h-273v-182h91v-46h-182v136q12 28 16 57t12 58l-56 15q-33 -131 -96 -238q1 -3 3 -14t4 -23t4 -22.5t2 -13.5q6 9 15 21t18.5 25t18 24.5t14.5 20.5v-273h45v56q7 -5 21 -22.5t25 -33.5q46 25 78.5 58.5t57.5 78.5v-137h45v137q20 -40 56 -75t84 -62q1 1 7.5 11.5
t14 22t13.5 21.5t7 12q-47 23 -81.5 53t-54.5 62h136v45zM682 255h-181v90h181v-90z" />
    <glyph glyph-name="uF003D" unicode="&#xf003d;" 
d="M685 435q114 -102 205 -185q39 -35 76 -69.5t66 -62t46.5 -46t17.5 -21.5v-60q0 -4 -17.5 1.5t-46.5 17t-66 27t-76 32.5q-91 40 -205 93v-189q26 -19 49 -37q20 -15 40 -29.5t31 -22.5q13 -9 15 -18.5t2 -22.5v-34q0 -8 -16.5 -10.5t-39.5 8.5q-11 6 -40 18t-62 26
t-63.5 26t-45.5 18q-2 0 -3.5 0.5t-3.5 0.5t-3.5 -0.5t-3.5 -0.5q-15 -6 -45.5 -18t-63.5 -26t-62 -26t-40 -18q-23 -11 -39.5 -8.5t-16.5 10.5v34q0 13 2 22.5t15 18.5q11 8 31 22.5t40 29.5q23 18 49 37v189q-115 -53 -206 -93q-39 -17 -75.5 -32.5t-65.5 -27t-46.5 -17
t-17.5 -1.5v60q0 3 17.5 21.5t46.5 46t65.5 62t75.5 69.5q91 83 206 185v227q0 34 10 57.5t25 38.5t32.5 23t33 12t25.5 4.5t11 0.5h10q11 -1 26.5 -5t33 -12t32.5 -23t25 -38.5t10 -57.5v-227z" />
    <glyph glyph-name="uF003E" unicode="&#xf003e;" 
d="M802 618q40 34 90.5 42t94.5 -5.5t74 -47.5t30 -84v-376q0 -42 -12.5 -77.5t-36 -59t-57 -32t-75.5 3.5q-28 8 -51 21.5t-44 27.5t-42 26t-45 16h-364q-24 0 -45.5 -11.5t-42.5 -26.5t-44 -30t-50 -23q-42 -12 -75.5 -3.5t-57.5 32.5t-36.5 60t-12.5 78v374q6 49 37 83
t72 48t86.5 6t80.5 -42q15 -15 43 -38t63.5 -45t77.5 -37.5t86 -15.5q43 0 82.5 16t72.5 38t58.5 45t42.5 37zM227 164q19 0 35.5 7t29 19t19.5 28.5t7 35.5q0 38 -26.5 64.5t-64.5 26.5q-19 0 -35.5 -7t-29 -19.5t-19.5 -29t-7 -35.5q0 -38 26.5 -64t64.5 -26zM955 300h-45
v45h-91v-45h-46v-91h46v-45h91v45h45v91z" />
    <glyph glyph-name="uF003F" unicode="&#xf003f;" 
d="M774 800q19 0 35.5 -7t29 -19.5t19.5 -29t7 -35.5v-818q0 -38 -26.5 -64.5t-64.5 -26.5h-546q-38 0 -64.5 26.5t-26.5 64.5v818q0 19 7 35.5t19.5 29t29 19.5t35.5 7h546zM410 709h181v46h-181v-46zM500 -154q19 0 35.5 7t29 19.5t19.5 29t7 35.5t-7 35.5t-19.5 28.5
t-29 19t-35.5 7q-38 0 -64 -26t-26 -64t26 -64.5t64 -26.5zM774 664h-546v-591h546v591z" />
    <glyph glyph-name="uF0040" unicode="&#xf0040;" 
d="M375 363h-125v125h125v-125zM1252 864v-1127h-1252v1127h1252zM500 551h-375v-501h125v188h125v-188h125v501zM813 113h-125v438h-125v-501h250v63zM1126 113h-125v438h-125v-501h250v63z" />
    <glyph glyph-name="uF0041" unicode="&#xf0041;" 
d="M1252 864v-1127h-1252v1127h375v-814h501v814h376z" />
    <glyph glyph-name="uF0042" unicode="&#xf0042;" 
d="M1252 864v-876l-294 -251h-958v1127h1252zM876 113h-689v-125h689v125zM1064 363h-877v-125h877v125zM1064 614h-877v-126h877v126z" />
    <glyph glyph-name="uF0043" unicode="&#xf0043;" 
d="M1252 506q1 -5 1 -9v-9q0 -48 -17 -90.5t-46 -75.5v-585h-1127v586q-29 33 -46 75t-17 90v376h1252v-358zM1064 246q-15 -4 -30 -6t-32 -2q-57 0 -105 23t-83 61q-35 -38 -83 -61t-105 -23q-56 0 -104 23t-83 61q-35 -38 -83 -61t-105 -23q-31 0 -63 8v-384h876v384z" />
    <glyph glyph-name="uF0044" unicode="&#xf0044;" 
d="M470 299q-33 0 -61.5 12.5t-49.5 34t-33.5 50t-12.5 60.5t12.5 60.5t33.5 49.5t49.5 33.5t61.5 12.5q32 0 60.5 -12.5t49.5 -33.5t33.5 -49.5t12.5 -60.5t-12.5 -60.5t-33.5 -50t-49.5 -34t-60.5 -12.5zM1252 -264h-1252v1127h1252v-125v-1002zM1127 738h-1001v-773
q18 26 40 52t46 47t49.5 34.5t51.5 13.5q31 0 53.5 -4.5t40 -11.5t32.5 -15.5t32.5 -15.5t39.5 -11.5t53 -4.5t53.5 18.5t41.5 46.5t38 60t43 60t57 46.5t80 18.5q40 0 77 -24.5t68.5 -63.5t58 -87t46.5 -94v708z" />
    <glyph glyph-name="uF0045" unicode="&#xf0045;" 
d="M63 175h438v-438h-438v438zM752 175h438v-438h-438v438zM0 551h501v-313h-501v313zM1252 551v-313h-500v313h500zM564 551h125v-814h-125v814zM752 613h-251v188h251v-188zM1127 613h-313l123 251h190v-251zM439 613h-313v251h187z" />
    <glyph glyph-name="uF0046" unicode="&#xf0046;" 
d="M311 243h129l-2 -132h-125zM626 237h125v-126h-125v126zM438 550h188v-126h-188v126zM872 737q28 0 51.5 -10.5t41 -28.5t27.5 -42.5t10 -52.5v-607q0 -28 -10 -52.5t-27.5 -42.5t-41 -28.5t-51.5 -10.5h-675q-28 0 -52.5 10.5t-42.5 28.5t-28.5 42.5t-10.5 52.5v607
q0 28 10.5 52.5t28.5 42.5t42.5 28.5t52.5 10.5h675zM500 -10q-1 5 -1.5 28.5t-0.5 55.5v70q0 37 0.5 69.5t1 56t1.5 29.5q-6 -1 -24.5 -1.5t-44 -1t-54 -0.5t-54.5 0.5t-46 1t-27 1.5q1 -5 1.5 -28t1 -55.5t0.5 -70t-0.5 -71t-1 -58t-1.5 -30.5h60l2 63h125l2 -59h60z
M376 362q10 1 35 2t57.5 1.5t68.5 0.5t67.5 -0.5t54.5 -1t30 -1.5q-1 5 -1.5 24t-1 45t-0.5 55.5t0.5 55.5t1 45t1.5 24q-7 -1 -30.5 -1.5t-55.5 -1t-68 -0.5h-69q-32 0 -56.5 1t-33.5 2q1 -4 1.5 -22.5t0.5 -44.5v-57v-56q0 -27 -0.5 -46t-1.5 -24zM813 -7q-1 5 -1 28v55
v70v70q0 32 0.5 55t1.5 28q-7 -1 -26 -1.5t-45 -1t-55 -0.5h-54q-25 0 -44.5 0.5t-25.5 1.5q1 -5 1.5 -28.5t0.5 -55.5v-70v-71q0 -33 -0.5 -57t-1.5 -30h58l4 63h125l3 -56h59z" />
    <glyph glyph-name="uF0047" unicode="&#xf0047;" 
d="M939 -201l-313 375h313v-375zM313 -139v564l254 -281zM939 237h-376l188 188zM313 738v-251l-125 126zM125 584l125 -136l1 -300l-126 116v320zM313 800l-160 -155l-153 155h313zM683 450l-157 -156l-156 156l156 157z" />
    <glyph glyph-name="uF0048" unicode="&#xf0048;" 
d="M792 48q-9 -1 -19 -3.5t-18 -5.5q-10 -4 -19 -9q-2 11 1 22q2 10 8 21t20 22q25 17 59.5 21t64.5 -8t47 -41.5t6 -80.5q-9 -41 -37 -74.5t-74.5 -51.5t-109.5 -17t-141 28q-54 19 -85 47.5t-46.5 58.5t-18.5 56.5t-1 41.5t12.5 37t21.5 42q13 24 29 49q8 13 14 25
q5 11 8 22t0 21q-10 26 -25 40t-29 21q-17 7 -35 8q-25 1 -46 6q-18 5 -35.5 13t-25.5 25q-9 17 -7.5 35t7 35.5t11.5 33.5t6 28q0 32 -34 45q-44 11 -66 9t-31 -8.5t-9 -12t0 -1.5q0 -14 3.5 -36t-3.5 -42q-5 -12 -13.5 -22.5t-14.5 -19.5q-8 -13 -13.5 -22.5t-4.5 -12.5
q2 -4 9.5 -5.5t11.5 -3.5q5 -3 6.5 -9.5t7.5 -11.5q10 -10 12 -17q1 -4 0 -7q0 -8 1 -19q1 -9 2.5 -20.5t4.5 -22.5q6 -26 14 -36.5t19.5 -13t27.5 -0.5t39 2q17 -1 35 -1t32 -8t22 -22t13 -28q4 -17 6 -35q3 -23 3 -46q0 -20 -2 -43.5t-10 -46.5q-17 -47 -50 -70t-71 -30
q-40 -8 -76 -2t-65 20t-47.5 34t-22.5 40q-3 16 -0.5 31.5t7.5 30t12 27.5t12 25q9 19 11 33.5t0 24.5q-2 11 -8 20q-9 10 -19 21q-8 10 -17 21.5t-15 25.5q-20 41 -21 76q0 15 0.5 36.5t7.5 40.5q6 16 29.5 42.5t52.5 68.5q6 12 10.5 25t7 24t3.5 19t1 11q0 10 -1 22t-2 25
q0 6 -1 20t2.5 31t12.5 34.5t28 31.5q15 11 35.5 15.5t38.5 5.5q21 1 44 -1q19 7 40 11q18 4 42 7t50 3q87 -2 146 -26.5t97 -60t58 -77t29 -77t10.5 -60t1.5 -25.5q1 -17 12 -31t25.5 -28.5t30 -29.5t26.5 -33q21 -38 23 -68t-8 -53t-28 -39.5t-36.5 -27.5t-34 -17
t-19.5 -8q-33 -15 -50.5 -33t-23.5 -36t-2.5 -35t14.5 -29q7 -9 18 -15t22.5 -9t22 -3.5t17.5 1.5q16 3 26.5 14.5t12.5 24.5t-5.5 22t-26.5 8z" />
    <glyph glyph-name="uF0049" unicode="&#xf0049;" 
d="M957 551q27 0 50 -10t40.5 -27t27.5 -40t10 -49t-10 -49t-27.5 -40t-40.5 -27t-50 -10q-38 0 -69 20l-14 -14q9 -15 14.5 -32t5.5 -36q0 -26 -10 -49t-27.5 -40t-41 -27t-50.5 -10q-36 0 -66 19l-15 -16q8 -14 13 -30.5t5 -34.5q0 -26 -10 -48.5t-27.5 -39.5t-40.5 -27
t-50 -10q-34 0 -64 16l-233 -234l-50 45l236 235q-17 29 -17 63q0 26 10 49t27.5 40t40.5 27t50 10q33 0 62 -16l17 17q-16 29 -16 61q0 26 10 49t27.5 40t41 27t49.5 10q17 0 32 -4t29 -11l18 18q-15 27 -15 59q0 26 10 49t27.5 40t40.5 27t50 10zM382 174q-35 0 -63 17
l-234 -234l-49 45l235 235q-17 28 -17 63q0 26 10 48.5t27.5 39.5t41 27t49.5 10q35 0 62 -15l18 17q-16 26 -16 60q0 26 10 49t27.5 40t40.5 27t50 10q32 0 60 -14l18 18q-7 13 -11 27.5t-4 30.5q0 26 10 49t27.5 40t41 27t49.5 10q27 0 50.5 -10t41 -27t27.5 -40t10 -49
t-10 -48.5t-27.5 -39.5t-41 -27t-50.5 -10q-37 0 -69 19l-14 -14q20 -29 20 -68q0 -26 -10 -48.5t-27.5 -39.5t-40.5 -27t-50 -10q-37 0 -67 18l-15 -15q19 -30 19 -65q0 -26 -10 -49t-27.5 -40t-41 -27t-50.5 -10z" />
    <glyph glyph-name="uF004A" unicode="&#xf004a;" 
d="M27 312q25 3 65 4t92.5 -3t116 -15.5t134.5 -35.5q74 -24 143.5 -55.5t129 -63.5t106.5 -60.5t75 -47.5q-18 -26 -58 -51.5t-101 -32.5q-41 -5 -85.5 10.5t-88.5 36.5t-87 41t-80 26q-38 6 -74.5 7t-70 2.5t-64.5 7t-57 20.5q-21 12 -40.5 38.5t-34 58t-21 62t-0.5 51.5z
M992 172q1 -29 -7 -55t-23 -40.5t-35.5 -12t-42.5 29.5t-67.5 55.5t-101 55.5t-115 51.5t-109.5 44.5q-100 40 -179.5 53t-144.5 17q-27 1 -55.5 -0.5t-52 -0.5t-38.5 8t-14 25q1 12 10.5 32t25 43t35.5 47.5t41.5 45t43.5 35t42 18.5q43 9 86.5 14.5t94.5 2.5t114.5 -17.5
t147.5 -46.5q53 -20 99 -52.5t84 -70.5t67 -79.5t49.5 -80t32 -70.5t12.5 -52zM232 413q16 15 33 29q14 12 29.5 25.5t27.5 23.5q17 14 42.5 28t48.5 25q27 12 56 24l-94 17q-22 -9 -44 -20q-19 -9 -41.5 -22t-41.5 -28q-15 -12 -30 -27l-30 -30q-16 -17 -30 -33zM453 366
q12 13 25 26q11 11 24 23t26 21q14 11 31.5 22t31.5 19q17 10 34 18l-52 26q-20 -7 -39 -17q-17 -8 -35 -19.5t-32 -24.5t-27.5 -25.5t-24.5 -23.5q-13 -12 -24 -23zM641 303q8 9 18 19q8 8 19 18.5t22 21.5q13 12 27 22.5t26 18.5q14 9 27 16l-53 25q-14 -3 -29 -9
q-13 -5 -27.5 -13.5t-27.5 -22.5q-14 -14 -25.5 -26.5t-20.5 -23.5q-11 -12 -19 -24zM813 293q8 8 18.5 15.5t19.5 12.5q11 6 21 11l-41 20q-11 -3 -22 -8q-10 -5 -22 -11.5t-24 -17.5q-23 -20 -35 -35q-7 -9 -13 -17l49 -16q8 6 17 14q15 14 32 32zM914 201q7 4 12 10t8 11
q4 6 6 13l-34 28l-10 -5q-5 -3 -10.5 -7t-11.5 -12q-7 -8 -12 -14t-10 -10q-5 -5 -9 -8l35 -33q5 5 11 10q5 4 11 8.5t14 8.5z" />
    <glyph glyph-name="uF004B" unicode="&#xf004b;" 
d="M674 686q71 28 118 18t75.5 -39t39.5 -67.5t10 -68.5q-1 -20 -1.5 -39.5t-5 -42t-16.5 -50.5t-35.5 -65t-61 -86t-93.5 -114q-78 -90 -137 -146.5t-108.5 -88t-93.5 -43t-91 -11.5q-56 -1 -90.5 19t-54 48t-26.5 58t-8 50q-1 21 -1 56t17.5 85.5t60.5 116.5t129 148
q59 56 101.5 93.5t74 63t55.5 40.5t45.5 25.5t44 19t52.5 20.5zM742 489q14 12 23.5 33.5t17.5 42.5q8 25 15 52l-61 -5q0 -12 -4 -24q-4 -11 -12 -23.5t-22 -26.5q-15 -14 -32.5 -10.5t-36 9.5t-38 8t-38.5 -13t-21.5 -37t-0.5 -45.5t1.5 -45t-15.5 -34.5t-31.5 -11.5
t-33.5 6t-33.5 5t-30.5 -14.5q-28 -30 -35 -56.5t-7 -48.5v-42q0 -18 -15 -31t-34 -13.5t-40 1.5t-42.5 0.5t-41.5 -16.5t-25.5 -45.5t-4.5 -60.5q1 -36 9 -76l71 -4q-13 25 -18 48q-5 20 -3 41t19 37q17 15 35.5 15t38 -3t39.5 -1.5t41 20.5t27.5 44.5t8 50.5t3.5 46.5
t14 31.5q17 16 34 14t35 -7.5t36.5 -7t38.5 16.5t23 41.5t1 46.5t-3 43.5t11 32.5t29.5 11.5t37 -3.5t38 -3.5t32.5 11.5z" />
    <glyph glyph-name="uF004C" unicode="&#xf004c;" 
d="M813 425v-126h-69l-52 -500h-381l-54 500h-70v126h54l64 125h195v66q0 16 9 38t25 42t38.5 34t49.5 14h133v-69h-127q-34 0 -48.5 -14.5t-14.5 -46.5v-64h119l64 -125h65z" />
    <glyph glyph-name="uF004D" unicode="&#xf004d;" 
d="M919 431q20 -65 20 -132q0 -91 -34.5 -170.5t-94 -139t-139.5 -94t-171 -34.5t-170.5 34.5t-139 94t-94 139t-34.5 170.5t34.5 171t94 139.5t139 94t170.5 34.5q62 0 118.5 -16.5t105.5 -45.5q-17 -21 -27 -47t-10 -56q0 -33 12.5 -62t34 -51t51 -34.5t62.5 -12.5
q20 0 37.5 5t34.5 13zM341 607q-13 -2 -20.5 -13t-5.5 -24t13 -20t24 -5l61 11q13 2 20.5 12.5t5.5 23.5t-12.5 20t-23.5 5zM233 323q11 8 13 20.5t-6 23.5t-20 13t-23 -6l-51 -36q-11 -8 -13.5 -20t5.5 -23t20.5 -13.5t23.5 5.5zM313 300q0 -39 14.5 -73.5t40 -60t60 -40
t73.5 -14.5t73 14.5t59.5 40t40 60t14.5 73.5t-14.5 73t-40 59.5t-59.5 40t-73 14.5t-73.5 -14.5t-60 -40t-40 -59.5t-14.5 -73zM731 1q12 5 17 17t0 24t-17 17t-24 0l-58 -24q-12 -5 -17 -17t0 -24t17 -17t24 0zM873 223q5 12 0 24t-17 17l-58 24q-12 5 -24 -0.5t-17 -17.5
t0.5 -23.5t17.5 -16.5l57 -24q12 -5 24 0t17 17z" />
    <glyph glyph-name="uF004E" unicode="&#xf004e;" 
d="M953 531q36 -6 67.5 -24t54 -44.5t35.5 -60.5t13 -72q0 -42 -16 -79.5t-43.5 -65t-65 -43.5t-79.5 -16q-38 0 -72.5 13.5t-61.5 37.5q-17 -19 -37 -35.5t-42 -30.5h-445q-43 27 -77 63t-60 76t-45 82.5t-32 82.5q-31 93 -42 195h961q-1 -10 -3 -22q-2 -11 -4 -25t-6 -32z
M919 206q26 0 48.5 9.5t39.5 26.5t27 39.5t10 48.5q0 24 -8.5 45t-23.5 37.5t-35 27.5t-43 14q-15 -51 -39 -106.5t-60 -108.5q35 -33 84 -33zM877 48q26 0 44.5 -18t18.5 -44t-18.5 -44.5t-44.5 -18.5h-751q-26 0 -44.5 18.5t-18.5 44.5t18.5 44t44.5 18h751z" />
    <glyph glyph-name="uF004F" unicode="&#xf004f;" 
d="M751 361q26 0 44 -18t18 -44t-18 -44.5t-44 -18.5h-501q-26 0 -44.5 18.5t-18.5 44.5t18.5 44t44.5 18h501z" />
    <glyph glyph-name="uF0050" unicode="&#xf0050;" 
d="M125 361h751v-127h-23q-20 0 -26 10.5t-10 23.5t-12.5 24t-32.5 13q-24 1 -43.5 -8.5t-37.5 -21.5t-35.5 -22.5t-37.5 -10.5t-30 9t-18.5 19.5t-19.5 19.5t-32 9t-42 -7t-41 -15.5t-40 -15.5t-39 -7q-20 0 -34 5t-28.5 11.5t-31 12.5t-41.5 8q-28 2 -53 -7.5t-43 -21.5
v99zM125 48h751v-125h-751v125zM765 234q17 1 26 -7t17.5 -19t18.5 -20t28 -9h21v-68h-751v78q13 12 36.5 25.5t53.5 13.5q22 0 35 -7t25 -15.5t27.5 -15.5t43.5 -7t50.5 6.5t42 15t36 15t31.5 6.5q24 0 33 -8t16.5 -17t18.5 -17t38 -8t48 8.5t38.5 19t33.5 19.5t33 11z
M876 424h-751v63q8 42 41 77t84 60.5t115.5 39.5t135.5 14q72 0 136.5 -14t114.5 -39.5t83 -60.5t41 -77v-63zM339 550q13 0 22 9t9 22t-9 22t-22 9t-22 -9t-9 -22t9 -22t22 -9zM526 612q14 0 22.5 9t8.5 22t-8.5 22t-22.5 9q-13 0 -21.5 -9t-8.5 -22t8.5 -22t21.5 -9z
M652 550q13 0 22 9t9 22t-9 22t-22 9t-22 -9t-9 -22t9 -22t22 -9z" />
    <glyph glyph-name="uF0051" unicode="&#xf0051;" 
d="M827 -74q-12 -9 -28 -9q-20 0 -34.5 14.5t-14.5 34.5q0 22 17 37q1 1 2 1.5t2 1.5l1 1q28 19 52 45t42 56.5t28 65t10 71.5q0 75 -38 137t-95 102q-21 15 -21 40q0 20 14.5 34.5t34.5 14.5q17 0 30 -11q37 -26 69 -60.5t55 -75t36 -86.5t13 -95q0 -50 -13 -96t-36.5 -87
t-55.5 -75.5t-70 -60.5zM771 375q21 -29 33.5 -58.5t12.5 -71.5q0 -40 -13 -72t-33 -58q-8 -11 -17 -19.5t-23 -8.5q-18 0 -30.5 13t-12.5 31q0 8 3 16h-1q5 11 12 21t13.5 20.5t11 24t4.5 32.5q0 18 -4.5 31.5t-11 24.5t-13.5 21t-11 21q-3 7 -3 16q0 18 12.5 31t30.5 13
q14 0 23 -8.5t17 -19.5zM448 -219q-51 46 -108 96t-106 92q-57 48 -114 95q-11 -1 -22 -1q-9 -1 -19 -1h-17q-27 0 -44 16.5t-17 39.5v252h1l-1 1q0 28 17.5 46t43.5 18h57q92 78 167 140q32 27 63 52.5t56 46.5t42 35t21 17q30 22 48.5 20t29 -18t14.5 -39t4 -42v-807v-3
q0 -19 -7 -40.5t-21.5 -34t-36.5 -10.5t-51 29z" />
    <glyph glyph-name="uF0052" unicode="&#xf0052;" 
d="M688 486v-595q0 -17 -6.5 -33t-19.5 -29.5t-31.5 -21.5t-43.5 -8h-114q-51 0 -74.5 29t-23.5 68v590h313zM625 551h-188v106q0 17 2 27t7 17t13 13.5t19 16.5q32 29 51.5 43.5t35.5 19.5q23 8 35.5 6t18 -11t6 -23t0.5 -29v-186z" />
    <glyph glyph-name="uF0053" unicode="&#xf0053;" 
d="M948 539q-38 6 -51 6q-9 0 -13 -1v72q0 29 8.5 42t30.5 13h50q21 0 28.5 -11.5t7.5 -40.5v-98l-15 6q-8 2 -19.5 5.5t-26.5 6.5zM1191 288q7 -6 10.5 -23.5t3.5 -36t-5.5 -34.5t-16.5 -20q-6 -2 -14 -3t-15 -1h-16q1 -7 0 -17q-1 -8 -2.5 -19.5t-3.5 -25.5
q-4 -19 -27 -44t-52.5 -49t-58 -44t-42.5 -29q-26 -16 -50 -15.5t-48.5 12t-51 32.5t-58.5 46q-18 14 -37 32.5t-37.5 35t-35 27t-29.5 9.5q-14 -1 -31 -12.5t-35 -27t-35 -32t-30 -26.5q-24 -19 -52 -41.5t-60 -37.5t-67 -17t-73 20q-22 12 -47.5 31.5t-47.5 41.5t-37 44.5
t-15 41.5q0 15 -0.5 27t-1.5 20q-1 10 -1 16q-15 -2 -29 -1.5t-22 8.5q-6 6 -11 21.5t-7 33t0.5 34.5t11.5 26q7 8 17.5 10.5t20.5 3.5q11 1 24 0q0 17 2 33q2 14 5 28t10 22q17 22 75 40t147 32q140 22 288 22.5t284 -19.5q72 -11 130 -29t90 -41q9 -7 13.5 -22t6.5 -32
q2 -19 2 -41q13 1 25 0q10 -1 20.5 -3t15.5 -7zM999 137q6 10 8.5 26t2.5 34t-0.5 34.5t-0.5 28.5q0 19 -8 34t-28.5 26t-56 18.5t-90.5 12.5q-55 4 -121 6t-131.5 1t-125.5 -4t-104 -9q-31 -4 -58.5 -9.5t-48 -14.5t-32.5 -22.5t-12 -34.5v-26q0 -18 1 -39t3 -40.5t6 -29.5
q6 -15 21.5 -30.5t33.5 -28t35 -19.5t26 -5q18 5 42 20.5t51 38t55 48.5t55 52q35 35 77.5 37t82.5 -31q27 -23 54.5 -50.5t54 -52t51 -42t45.5 -21.5q11 -2 26.5 7.5t31.5 23.5t30.5 30.5t23.5 30.5z" />
    <glyph glyph-name="uF0054" unicode="&#xf0054;" 
d="M912 117q15 0 22 -10.5t7 -22.5t-7.5 -22.5t-21.5 -11.5h-1007q-16 0 -25 7t-9 24q0 10 3.5 16.5t8.5 11.5t12 8h1017zM768 609q27 -2 64.5 -7t71.5 -15.5t59 -26t28 -38.5q4 -33 6 -68t2.5 -67t0 -58t-1.5 -41q-1 -27 -14.5 -47.5t-36.5 -34t-54 -20.5t-66 -7h-59h-112
h-147h-162h-428q33 63 74 113.5t86.5 93.5t93 78.5t94.5 68.5q15 11 43.5 24t59.5 24.5t60 19.5t45 10q81 6 151.5 4.5t141.5 -6.5zM831 347q4 12 5 39t-0.5 54t-7 48.5t-14.5 23.5q-28 5 -72 9t-90 5.5t-86 0t-61 -5.5q-29 -6 -63.5 -16.5t-67.5 -27.5t-62 -41t-46 -57
q-16 -29 -1 -44.5t43.5 -23t62.5 -9t57 -1.5q28 0 71.5 0.5t88.5 0.5h82h56q12 0 28 1.5t31.5 6.5t28 13.5t17.5 23.5zM1182 486q18 0 25.5 -19t6.5 -42t-9.5 -41.5t-22.5 -18.5l-118 1l-4 121z" />
    <glyph glyph-name="uF0055" unicode="&#xf0055;" 
d="M703 650q34 0 52 -9.5t31 -36.5q5 -11 16 -34t25 -52t29 -61.5t28.5 -61.5t24 -51.5t14.5 -32.5q5 -11 8.5 -16.5t6 -12t3.5 -15.5t1 -25q0 -12 -0.5 -37t-0.5 -53v-56v-39q0 -28 -16.5 -47.5t-47.5 -19.5h-768q-29 0 -44 18.5t-16 47.5v35q0 23 0.5 49t0.5 52v42
q0 17 0.5 27t2.5 17.5t4.5 15.5t7.5 20q3 8 13 30.5t24 51.5t30.5 62t31 62.5t26.5 52.5l16 33q13 26 32 35t45 9h420zM876 224q0 30 -28 30l-708 -1q-17 0 -26 -9.5t-9 -24.5v-142q0 -12 6.5 -20t20.5 -8l712 -1q20 0 26 9.5t6 23.5v143zM287 598q-14 0 -23.5 -9.5
t-9.5 -23.5t9.5 -23.5t23.5 -9.5t23 9.5t9 23.5t-9 23.5t-23 9.5zM210 418q-14 0 -23.5 -9.5t-9.5 -23.5t9.5 -23.5t23.5 -9.5t23.5 9.5t9.5 23.5t-9.5 23.5t-23.5 9.5zM670 565q0 -14 9 -23.5t23 -9.5t23.5 9.5t9.5 23.5t-9.5 23.5t-23.5 9.5t-23 -9.5t-9 -23.5zM746 385
q0 -14 9.5 -23.5t23.5 -9.5t23 9.5t9 23.5t-9 23.5t-23 9.5t-23.5 -9.5t-9.5 -23.5zM228 77h-30v142h30v-142zM319 77h-30v142h30v-142zM411 77h-30v142h30v-142zM502 77h-30v142h30v-142zM596 77h-30v142h30v-142zM689 77h-30v142h30v-142zM777 77h-30v142h30v-142z" />
    <glyph glyph-name="uF0056" unicode="&#xf0056;" 
d="M902 573q0 -25 -23.5 -46.5t-64.5 -37.5t-95.5 -25t-117.5 -9t-118 9t-96 25t-65 37.5t-24 46.5t23.5 46.5t64.5 38t96 26t118 9.5t118 -9.5t96 -26t64.5 -38t23.5 -46.5zM601 622q-38 0 -64 -13t-26 -31t26 -30.5t64 -12.5q37 0 63.5 12.5t26.5 30.5t-26.5 31t-63.5 13z
M299 493q28 -22 71 -40q37 -15 93.5 -27.5t136.5 -12.5q81 0 138 12.5t94 27.5q42 18 70 40v-466q0 -14 -16.5 -32.5t-51.5 -35.5t-89.5 -28.5t-130.5 -11.5q-77 0 -136 10t-99 25.5t-60.5 35t-20.5 37.5v252q0 97 1 214zM250 483h-179l78 -228l-78 -228h179v456z" />
    <glyph glyph-name="uF0057" unicode="&#xf0057;" 
d="M309 -2q0 -26 -9 -43.5t-23 -28.5t-31 -15.5t-34 -4.5h-17q-17 0 -35.5 5.5t-33.5 17.5t-25 30.5t-10 44.5v627q0 23 10 42t26.5 32t37 20t41.5 7t40 -8.5t33 -22.5t22 -32t8 -38v-633zM934 3q0 -50 -29.5 -73t-105.5 -23l-425 -1v826h425q76 0 105.5 -24t29.5 -83v-622z
M811 571q0 24 -29 24h-254q-17 0 -23 -7t-6 -22v-95q0 -16 6 -21.5t20 -5.5h259q16 0 21.5 6.5t5.5 18.5v102zM573 283q0 5 -1.5 7t-8.5 2h-49q-12 0 -12 -10v-23q0 -9 10 -9h51q10 0 10 9v24zM573 191q0 5 -1.5 7t-8.5 2h-49q-12 0 -12 -10v-24q0 -9 10 -9h51q10 0 10 9v25
zM573 94q0 5 -1.5 7t-8.5 2h-49q-12 0 -12 -10v-23q0 -9 10 -9h51q10 0 10 9v24zM805 285q0 5 -1.5 7t-7.5 2h-50q-11 0 -11 -10v-23q0 -9 10 -9h51q6 0 7.5 2t1.5 7v24zM805 193q0 5 -1.5 7t-7.5 2h-50q-11 0 -11 -10v-24q0 -9 10 -9h51q6 0 7.5 2t1.5 7v25zM805 96
q0 5 -1.5 7t-7.5 2h-50q-11 0 -11 -10v-23q0 -9 10 -9h51q6 0 7.5 2t1.5 7v24zM689 285q0 5 -1.5 7t-7.5 2h-50q-11 0 -11 -10v-23q0 -5 1.5 -7t7.5 -2h52q9 0 9 9v24zM689 193q0 5 -1.5 7t-7.5 2h-50q-11 0 -11 -10v-24q0 -4 1.5 -6.5t7.5 -2.5h52q9 0 9 9v25zM689 96
q0 5 -1.5 7t-7.5 2h-50q-11 0 -11 -10v-23q0 -5 1.5 -7t7.5 -2h52q9 0 9 9v24z" />
    <glyph glyph-name="uF0058" unicode="&#xf0058;" 
d="M147 419q-11 -13 -20 -31q-8 -15 -14 -36t-6 -48q0 -32 5.5 -56t12.5 -40q8 -18 19 -32q17 11 31 29q11 15 21 38.5t10 58.5q0 26 -9.5 48t-20.5 37q-13 18 -29 32zM178 455q19 -20 34 -45q13 -21 23.5 -48.5t10.5 -58.5q0 -42 -12 -71.5t-26 -49.5q-17 -23 -37 -37
q22 -17 47 -29q21 -11 47.5 -20t54.5 -9q30 0 56 7.5t46 17.5q23 11 41 26q-20 15 -37 39q-14 20 -26 51t-12 76q-1 32 11 58.5t26 46.5q17 23 38 41q-18 16 -41 28q-20 11 -46 19.5t-56 8.5q-29 0 -54 -8t-45 -18q-23 -11 -43 -25zM488 418q10 -12 19 -30q8 -15 14 -36.5
t6 -48.5q0 -32 -6 -56t-13 -40q-8 -19 -18 -32q-18 11 -31 29q-11 15 -21 38.5t-9 58.5q0 26 9 48t20 37q13 18 30 32zM678 254q-8 57 -15.5 98.5t-8.5 76.5q-1 17 -2 58.5t-2.5 88t-2.5 89t-1 61.5q1 40 23.5 58.5t60.5 16.5q35 -1 58.5 -17t23.5 -52v-72q0 -41 -0.5 -82.5
t-1 -79t-1.5 -60.5t-3.5 -43t-6 -41.5t-8 -45.5t-8.5 -54h-105zM685 206l20 -246q-12 -3 -23 -7q-9 -4 -18.5 -9.5t-14.5 -14.5t-2 -20.5t13.5 -22t28.5 -18t44 -7.5t45.5 7.5t30.5 18.5t13.5 23.5t-4.5 21.5q-8 9 -17.5 15t-18.5 9q-11 4 -21 5l18 245h-94z" />
    <glyph glyph-name="uF0059" unicode="&#xf0059;" 
d="M954 462q0 31 -20.5 52.5t-60.5 21.5h-757q-34 0 -52.5 -17t-17.5 -46v-37v-76v-93v-93v-73v-34q0 -32 19 -48.5t48 -16.5h760q35 0 58 21t23 52v41v72v88v86v68v32zM521 393q0 -23 -17.5 -42t-42.5 -19h-310q-25 0 -42.5 18.5t-17.5 40.5v13q0 23 17.5 40.5t42.5 17.5
h310q25 0 42.5 -18.5t17.5 -40.5v-10zM740 89q-33 0 -61.5 12.5t-50 33.5t-34 49.5t-12.5 61.5t12.5 62t34 50t50 33.5t61.5 12.5t61.5 -12.5t50 -33.5t34 -50t12.5 -62t-12.5 -61.5t-34 -49.5t-50 -33.5t-61.5 -12.5zM260 572h-94l142 252q10 16 25 23.5t32 -0.5t19.5 -26
t-3.5 -30z" />
    <glyph glyph-name="uF005A" unicode="&#xf005a;" 
d="M754 417q41 -54 70.5 -110.5t49.5 -104.5q23 -55 40 -109h-846q17 45 41 94q20 42 50 96t70 111q72 103 141 148t121 45q30 0 61 -8.5t63.5 -28.5t67 -52.5t71.5 -80.5zM491 417q-31 0 -54 -25t-43 -60q-8 -13 -17 -34t-14.5 -41t-5.5 -34.5t11 -14.5h62h59h62h69
q10 0 9 13.5t-8 33t-16.5 39.5t-16.5 33q-22 41 -43 65.5t-54 24.5zM933 -9q0 -13 -8.5 -22t-20.5 -9h-826q-12 0 -21 9t-9 22t8 22t20 9h830q12 0 19.5 -9t7.5 -22z" />
    <glyph glyph-name="uF005B" unicode="&#xf005b;" 
d="M412 -30q0 -23 -8.5 -42.5t-23.5 -34.5t-35 -23.5t-42 -8.5q-23 0 -42.5 8.5t-34.5 23.5t-23.5 34.5t-8.5 42.5q0 22 8.5 42t23.5 35t34.5 23.5t42.5 8.5q22 0 42 -8.5t35 -23.5t23.5 -35t8.5 -42zM788 -30q0 -23 -8.5 -42.5t-23.5 -34.5t-35 -23.5t-42 -8.5
q-23 0 -43 8.5t-35 23.5t-23.5 34.5t-8.5 42.5q0 22 8.5 42t23.5 35t35 23.5t43 8.5q22 0 42 -8.5t35 -23.5t23.5 -35t8.5 -42zM339 165q0 -11 -9.5 -18t-23.5 -7t-23.5 7t-9.5 18v438q0 11 9.5 20t23.5 9t23.5 -7.5t9.5 -19.5v-440zM711 165q0 -11 -9 -18t-23 -7t-23.5 7
t-9.5 18v442q0 12 9.5 18.5t23.5 6.5t23 -6.5t9 -18.5v-442z" />
    <glyph glyph-name="uF005C" unicode="&#xf005c;" 
d="M495 655q27 -26 49.5 -25.5t53.5 28.5q12 11 30.5 1.5t41 -30.5t47 -51t47.5 -60t43.5 -56.5t34.5 -41.5q18 -20 28.5 -50t-3.5 -67q-9 -24 -13 -55.5t-4.5 -62.5t3 -58t9.5 -42q18 -46 18.5 -79.5t-26.5 -46.5q-23 -10 -59 -21t-80.5 -20.5t-94 -15.5t-98.5 -6
q-48 0 -98.5 4.5t-94.5 14t-78 23.5t-49 34t-12 43t11 61q4 19 9.5 48.5t8.5 61.5t1.5 62t-10.5 50q-19 42 -14 73t40 62q13 11 33 35.5t44.5 53.5t50.5 58t50.5 50t45.5 29t35 -4z" />
    <glyph glyph-name="uF005D" unicode="&#xf005d;" 
d="M810 567q18 -62 11 -123t-35 -113.5t-75.5 -92t-108.5 -57.5q-62 -19 -123 -12t-113.5 35t-92 75t-57.5 109q-19 61 -12 122.5t35 114t75 92t109 58.5q62 18 123 11t113.5 -35t92.5 -75.5t58 -108.5zM537 521q4 9 8.5 23t13.5 33t25 41t44 48q14 14 7.5 30t-26.5 26
q-35 17 -65.5 17t-53.5 -8q-28 -10 -42 -37.5t-10 -59.5q3 -32 16 -59.5t29 -44t31.5 -20.5t22.5 11zM546 440q4 -5 16.5 -14t25.5 -26.5t24.5 -44.5t14.5 -66q2 -19 23 -19.5t42 13.5q30 21 43.5 47.5t12.5 53.5t-15 51.5t-39 40.5q-26 16 -58.5 19.5t-58.5 -2.5t-37.5 -20
t6.5 -33zM473 477q-21 -4 -65 -4t-114 26q-23 9 -35 -8.5t-10 -44.5q5 -41 22 -70.5t33 -45.5q21 -20 51 -23.5t60 19.5q39 28 57.5 62t22.5 54q2 14 -4.5 25.5t-17.5 9.5zM549 -68h-79v185h79v-185zM632 -54q57 -4 82.5 -15t25.5 -25q0 -9 -18 -14.5t-48.5 -9t-72 -4.5
t-88.5 -1t-89.5 0.5t-74.5 3.5t-50.5 9t-18.5 16q0 13 21.5 24.5t80.5 15.5h250z" />
    <glyph glyph-name="uF005E" unicode="&#xf005e;" 
d="M868 248q0 -40 -18.5 -64t-65.5 -24h-572q-42 0 -63.5 26.5t-21.5 73.5v381q0 46 19 72.5t69 26.5h564q51 0 70 -22.5t19 -68.5v-401zM590 643q0 28 -25 28h-332q-27 0 -27 -30v-159q0 -14 5.5 -21t20.5 -8l329 -1q29 0 29 28v163zM793 345q0 13 -14 13h-100
q-14 0 -14 -13t14 -13h100q14 0 14 13zM792 622q0 20 -17 20h-82q-11 0 -14.5 -6t-3.5 -17v-107q0 -11 3.5 -18.5t14.5 -7.5h83q12 0 14 7t2 18v111zM323 393q-6 0 -10 -1.5t-4 -8.5v-16q0 -9 10 -9h9h14h14h8q7 0 8.5 2.5t1.5 6.5v16q0 4 -1 7.5t-7 2.5h-43zM430 393
q-6 0 -9.5 -0.5t-4.5 -7.5q0 -6 0.5 -11t-0.5 -10q0 -5 3.5 -5.5t7.5 -0.5h48q7 0 7 7v21q0 3 -1 5.5t-7 1.5h-44zM217 393q-6 0 -9.5 -1.5t-3.5 -8.5q-1 -4 -0.5 -8.5t0.5 -8.5q-1 -5 2.5 -7t6.5 -2h45q9 1 9 10v15q0 4 -1 7.5t-7 3.5q-5 -1 -17.5 -0.5t-24.5 0.5zM539 393
q-7 0 -10.5 -0.5t-3.5 -7.5q-1 -6 -0.5 -11t0.5 -10q-1 -5 2.5 -5.5t7.5 -0.5h50q8 0 8 7v21q0 3 -1 5.5t-7 1.5h-46zM323 328q-6 0 -10 -0.5t-4 -7.5v-21q0 -6 10 -6h47q8 0 8 8v20q0 3 -1 5.5t-7 1.5h-43zM430 328q-6 0 -9.5 -0.5t-4.5 -7.5q0 -6 0.5 -11t-0.5 -10
q0 -4 3.5 -5t7.5 -1h48q7 0 7 8v20q0 3 -1 5.5t-7 1.5h-44zM217 328q-6 0 -9.5 -0.5t-3.5 -7.5q-1 -7 -0.5 -12t0.5 -9q-1 -5 2.5 -6t6.5 -1h47q8 0 8 8v20q0 3 -1 5.5t-7 2.5q-5 -1 -18 -0.5t-25 0.5zM539 328q-6 0 -10 -0.5t-4 -7.5q-1 -6 -0.5 -11t0.5 -10q-1 -4 2.5 -5
t7.5 -1h50q8 0 8 8v20q0 3 -1 5.5t-7 1.5h-46zM323 265q-6 0 -10 -0.5t-4 -7.5v-21q0 -5 3 -5.5t7 -0.5h47q8 0 8 7v20q0 4 -1 6t-7 2h-43zM430 265q-6 0 -9.5 -0.5t-4.5 -7.5q0 -7 0.5 -11.5t-0.5 -9.5q0 -5 3.5 -5.5t7.5 -0.5h48q7 0 7 7v20q0 4 -1 6t-7 2h-44zM217 264
q-6 0 -9.5 -0.5t-3.5 -6.5q-1 -7 -0.5 -12t0.5 -10q-1 -4 2.5 -5t6.5 -1h47q7 0 7 8v20q0 3 -1 5.5t-6 1.5h-43zM539 265q-6 0 -10 -0.5t-4 -7.5q-1 -7 -0.5 -11.5t0.5 -9.5q-1 -5 2.5 -5.5t7.5 -0.5h50q8 0 8 7v20q0 4 -1 6t-7 2h-46zM868 -84q0 -38 -16 -56t-62 -18h-576
q-38 0 -62.5 15t-24.5 61v116q0 43 16.5 61t63.5 18h575q40 0 63 -15.5t23 -59.5v-122zM791 13q0 17 -9 28t-28 13h-514q-20 1 -29.5 -11.5t-10.5 -32.5v-57q1 -19 7.5 -27.5t28.5 -10.5l521 -1q19 0 26.5 10t7.5 29v60z" />
    <glyph glyph-name="uF005F" unicode="&#xf005f;" 
d="M484 360q8 -6 26 -7.5t40 -0.5t46.5 2t45.5 -1t37 -8.5t21 -20.5t-3.5 -27.5t-25.5 -26t-38.5 -25t-41 -24.5t-34 -24t-17.5 -23q-3 -12 1 -30.5t11.5 -40.5t15.5 -45t12.5 -43t3.5 -35.5t-11 -22.5q-11 -7 -25.5 -1.5t-31 17t-35 27t-36 29.5t-34 24t-30.5 10
q-21 0 -48 -19.5t-55 -41.5t-53 -35.5t-41 -1.5q-11 8 -11 23.5t6 35.5t16 42t18 43t12.5 40t0.5 32t-18.5 26t-33.5 26t-39 26t-35.5 26t-24 26t-3.5 26t20.5 18t36 6t45 -0.5t47 -3t41 -0.5t28.5 7q15 9 27 40.5t23.5 66t23.5 61.5t27 27q10 0 18.5 -13t16 -33t14.5 -44
t14 -46t14.5 -39.5t15.5 -23.5zM865 574q6 -5 23.5 -4.5t36.5 1t35 -2.5t20 -14t-8 -21.5t-28.5 -20t-31.5 -19t-17 -18.5q-3 -9 2.5 -26.5t11.5 -35.5t9 -33t-6 -21q-9 -5 -22 3t-27 20t-28 23t-25 11t-25.5 -10.5t-29 -22t-28 -19t-22.5 -0.5q-9 6 -5 21t11.5 32t13.5 34
t3 27q-4 10 -18.5 20.5t-30 21t-26.5 21t-7 20.5t19.5 12t34 1t36 -2t25.5 4t14.5 21.5t12.5 34.5t12.5 32.5t14.5 14.5t14.5 -14.5t12 -33t11 -35.5t12.5 -22z" />
    <glyph glyph-name="uF0060" unicode="&#xf0060;" 
d="M918 349q44 -52 1 -100l-310 -311q-10 -8 -21.5 -11.5t-23.5 -2.5t-22.5 5t-17.5 11q-112 112 -200 201l-74 75q-37 36 -65.5 65t-46.5 47l-19 19q-2 2 -6.5 8.5t-9.5 17t-9 23.5t-4 28v18q0 14 0.5 35t1 46t0.5 51q1 61 2 135q2 12 4.5 24t12.5 23q10 10 22.5 13.5
t22.5 3.5h304q2 1 14 0.5t15 -2.5q6 -2 13.5 -7t12.5 -10zM236 569q26 0 44 18t18 44t-18 44t-44 18t-44.5 -18t-18.5 -44t18.5 -44t44.5 -18z" />
    <glyph glyph-name="uF0061" unicode="&#xf0061;" 
d="M401 376q-1 1 -6 8t-11 16l-12 16q-6 9 -9 13q-5 8 -2 11t8 -2q2 -2 8.5 -7t14 -10t14 -10t9.5 -8q13 -10 17 -6t16 11q8 4 10 19q0 2 3.5 22t8 48t10 61t10 62t8 50t4.5 26q3 15 8 16t7 -16q0 -5 3.5 -26.5t7.5 -50.5t9 -61.5t9 -60t7 -47t4 -22.5l2 -10q1 -5 6 -7
q4 -2 7 -4t7 -4q9 -6 16 0q2 1 9.5 6.5t16 12t16.5 12t11 7.5q15 10 10 0q-2 -2 -8 -10t-12.5 -17.5t-13 -18t-7.5 -10.5q-7 -9 -3 -15q2 -3 4.5 -6.5t4.5 -8.5q3 -5 8.5 -8t16.5 -5q4 -1 24 -4t48.5 -7t61 -9t60.5 -9t48 -7t23 -3q10 -2 9 -7.5t-9 -7.5q-3 0 -24 -3.5
t-51 -8t-64.5 -10.5t-64.5 -10.5t-50 -8t-21 -3.5q-4 0 -7.5 -1t-5.5 -6q-2 -4 -6 -10t-6 -8t-3 -5.5t3 -8.5q2 -3 8 -10.5t13 -16.5t12.5 -17t7.5 -11q4 -5 1 -6t-8 2q-2 2 -10 8t-17 12.5t-17 12t-10 7.5q-5 3 -8 3t-5 -1q-2 -2 -5.5 -4t-7.5 -4q-3 -2 -5.5 -5t-4.5 -11
q0 -2 -3 -23t-7.5 -51.5t-9.5 -66t-10 -66.5t-8 -53.5t-4 -26.5q-2 -14 -5.5 -11.5t-5.5 13.5q-1 4 -4.5 26t-8.5 53.5t-10.5 67t-10.5 66t-8.5 52t-3.5 23.5q-3 11 -8 14l-6 4q-3 2 -7 4t-9 1t-8 -3q-1 -1 -9 -7t-18 -13t-18.5 -13t-9.5 -7q-4 -2 -9 -3.5t0 6.5
q3 3 10 12.5t14.5 20t14 19t8.5 11.5q4 5 0.5 10.5t-7.5 11.5q-3 6 -9 7l-12 2q-2 0 -21.5 3.5t-48 8t-61.5 10t-62 10t-50 8t-25 4.5q-14 2 -18 7.5t18 8.5q7 1 29.5 4.5t52.5 8t63.5 9t61.5 9t47 7t20 2.5q4 1 7.5 2t5.5 4q1 3 3 7t4 7q5 7 0 12z" />
    <glyph glyph-name="uF0062" unicode="&#xf0062;" 
d="M531 167q0 30 -11.5 57t-31 46.5t-46 31t-56.5 11.5t-57 -11.5t-46.5 -31t-31 -46.5t-11.5 -57t11.5 -56.5t31 -46t46.5 -31t57 -11.5t56.5 11.5t46 31t31 46t11.5 56.5zM719 -32q0 22 -8.5 42t-23.5 34.5t-35 23t-42 8.5q-23 0 -42.5 -8.5t-34 -23t-23 -34.5t-8.5 -42
q0 -23 8.5 -42.5t23 -34.5t34 -23.5t42.5 -8.5q22 0 42 8.5t35 23.5t23.5 34.5t8.5 42.5zM533 337q-44 0 -82 16.5t-66.5 45t-45 66.5t-16.5 81t16.5 81.5t45 66.5t66.5 44.5t82 16.5q43 0 81 -16.5t66.5 -44.5t45 -66.5t16.5 -81.5t-16.5 -81t-45 -66.5t-66.5 -45
t-81 -16.5zM425 639q-17 0 -29 -12t-12 -29t12 -29t29 -12t29 12t12 29t-12 29t-29 12z" />
    <glyph glyph-name="uF0063" unicode="&#xf0063;" 
d="M279 669q0 -14 -9 -22t-22 -8q-12 0 -20.5 8.5t-8.5 23.5l-1 69q0 17 9 25.5t21 8.5q13 0 22 -9t9 -26v-70zM904 482h-824v104q0 30 17 49t47 19h693q37 0 52 -18.5t15 -47.5v-106zM904 83q0 -32 -6 -55.5t-20 -39t-37.5 -23t-58.5 -7.5h-579q-71 0 -97 33t-26 100v321
h824v-329zM508 213q-10 0 -17 -7t-7 -17t7 -17t17 -7t17 7t7 17t-7 17t-17 7zM539 265h76q16 0 21.5 -15t-13.5 -34q-19 -18 -34 -36t-25 -42q-8 -21 -8 -38t1 -24q3 -20 25 -20q8 0 11.5 6.5t3.5 14.5q0 4 0.5 13.5t3 20.5t7.5 23t13 21q16 18 36 37t27 39q3 10 2.5 22.5
t-5.5 23t-14.5 18t-22.5 8.5q-10 1 -24 1h-30q-15 0 -27.5 -0.5t-18.5 -0.5q-11 0 -16 -6.5t-6 -11.5q0 -6 4.5 -13t12.5 -7zM348 269q5 2 12 2t14 -2.5t13 -8t9 -14.5q3 -14 -4.5 -27t-15.5 -17q-9 -5 -8 -14t8 -13q6 -4 13 -8t12 -18q1 -6 0.5 -14.5t-4.5 -16.5t-11 -14.5
t-18 -8.5q-21 -4 -33 6t-14 17q-3 8 -10 10.5t-13 0.5q-9 -2 -11.5 -11t-0.5 -14t9.5 -17t28.5 -23q10 -6 27 -7.5t34 2t32.5 14.5t23.5 31q7 17 6 31.5t-5.5 25t-10 16.5t-6.5 8q-5 5 -4.5 10.5t5.5 10.5q6 9 9 18t2 23q0 7 -2.5 16.5t-9.5 18t-18.5 15.5t-30.5 10
t-33.5 -1.5t-25 -12t-16.5 -16t-8 -12.5q-4 -9 -1 -18.5t11 -11.5t12.5 2t7.5 9q2 5 8 11.5t17 11.5zM765 670q0 -14 -8.5 -22.5t-20.5 -8.5q-13 0 -21.5 8t-8.5 23v74q0 17 8.5 23.5t21.5 6.5q12 0 20.5 -7.5t8.5 -24.5v-72z" />
    <glyph glyph-name="uF0064" unicode="&#xf0064;" 
d="M855 377q-7 1 -12.5 10t-8.5 33q-5 39 -25.5 57.5t-63.5 26.5q-45 9 -79.5 36.5t-57.5 51.5q-22 21 -34 15t-12 -22v-43v-94q0 -56 -0.5 -121t-0.5 -123v-102v-57q1 -24 -7.5 -53.5t-32 -55.5t-62.5 -44.5t-97 -21.5q-59 -3 -106.5 21t-73.5 60.5t-25.5 80t37.5 81.5
t80 53t83 16.5t71.5 -5.5t46.5 -13v283q0 118 1 266q0 29 15 47.5t40 21.5q21 3 34.5 -8.5t27.5 -32t34.5 -46.5t55.5 -51q30 -23 52.5 -33t42 -18.5t38.5 -20.5t42 -39q23 -26 28 -54t0.5 -51t-14.5 -37.5t-17 -13.5z" />
    <glyph glyph-name="uF0065" unicode="&#xf0065;" 
d="M680 277q0 -39 -14.5 -73t-40 -59.5t-59.5 -40t-73 -14.5t-73 14.5t-59.5 40t-40 59.5t-14.5 73t14.5 73t40 59.5t59.5 40t73 14.5t73 -14.5t59.5 -40t40 -59.5t14.5 -73zM743 -92q0 -11 -9 -20t-23 -15.5t-33 -10.5t-38 -4h-301q-17 0 -34 4t-30.5 10.5t-22 15.5
t-8.5 20h499zM752 753q43 0 62.5 -25t19.5 -60v-642q0 -35 -25 -60t-63 -25h-506q-39 0 -63 25t-24 60v642q0 35 22 59.5t60 24.5zM220 636q0 -11 7.5 -20.5t24.5 -9.5h76q17 0 25 11.5t8 22.5v15q0 11 -9 20t-25 9h-73q-17 0 -25.5 -9.5t-8.5 -20.5v-18zM493 27
q52 0 97.5 19.5t79.5 53.5t53.5 79.5t19.5 97.5q0 51 -19.5 96.5t-53.5 79.5t-79.5 53.5t-97.5 19.5q-51 0 -96.5 -19.5t-79.5 -53.5t-53.5 -79.5t-19.5 -96.5q0 -52 19.5 -97.5t53.5 -79.5t79.5 -53.5t96.5 -19.5z" />
    <glyph glyph-name="uF0066" unicode="&#xf0066;" 
d="M488 761q93 1 174.5 -33.5t143 -94.5t97.5 -141t37 -174q1 -89 -30.5 -166.5t-86.5 -137.5t-130 -98.5t-161 -47.5q-23 -3 -48.5 -5t-57 -3t-69.5 0t-86 5q-106 11 -157 27.5t-42 18.5q57 9 93 30q20 11 17 31.5t-20 39.5q-51 57 -83.5 133t-34.5 164q-1 93 33.5 175
t95 143.5t141.5 97t174 36.5zM660 310q0 -22 15.5 -37.5t37.5 -15.5t37.5 15.5t15.5 37.5q0 23 -15.5 38t-37.5 15t-37.5 -15t-15.5 -38zM439 310q0 -22 15.5 -37.5t37.5 -15.5t37.5 15.5t15.5 37.5q0 23 -15.5 38t-37.5 15t-37.5 -15t-15.5 -38zM219 310q0 -22 15 -37.5
t38 -15.5q22 0 37.5 15.5t15.5 37.5q0 23 -15.5 38t-37.5 15q-23 0 -38 -15t-15 -38z" />
    <glyph glyph-name="uF0067" unicode="&#xf0067;" 
d="M912 606q30 0 43 -17t13 -48v-195h-920v198q0 29 14.5 45.5t42.5 16.5h807zM48 309h920v-98q0 -18 -8 -32.5t-21 -25t-30 -16t-35 -5.5h-732q-5 0 -10 0.5t-10 1.5q2 -11 8 -27t22 -33q12 -13 26.5 -23.5t28 -18t24 -12t14.5 -5.5q19 -5 16 -18q-3 -14 -25 -7
q-5 1 -17.5 6t-28.5 13.5t-33.5 20t-31.5 26.5q-11 12 -18 25t-11 25t-6 22.5t-2 17.5q-18 10 -29 26.5t-11 38.5v98zM113 183h789v48h-789v-48z" />
    <glyph glyph-name="uF0068" unicode="&#xf0068;" 
d="M617 534q0 -52 -18.5 -98t-49.5 -80.5t-71.5 -54.5t-85.5 -20t-86 19t-72 53.5t-49.5 82t-18.5 104.5q0 45 18 85.5t48.5 71.5t70.5 49.5t85 18.5t86 -19.5t73 -51.5t51 -73.5t19 -86.5zM352 211l-1 -355l36 47l38 -47v355h-73zM590 717q21 -25 38 -54q14 -25 26 -57
t12 -67q-2 -61 -13.5 -102t-25.5 -66q-17 -29 -37 -46q29 3 58 9q25 5 54 13t55 22q23 12 43.5 31.5t35 46.5t20.5 60.5t0 74.5q-6 42 -35 75t-69 52.5t-83.5 23t-78.5 -15.5zM591 269l-1 -339l35 46l38 -46v339h-72z" />
    <glyph glyph-name="uF0069" unicode="&#xf0069;" 
d="M350 476q22 28 48 49q22 18 49 33t56 13q42 -3 70 -19.5t44.5 -42t22.5 -57.5t4 -65t-12.5 -63t-26 -56.5t-33.5 -48.5t-36 -40q-27 -28 -57.5 -53.5t-57.5 -45t-48.5 -31t-31.5 -11.5q-11 0 -30.5 12t-44 32t-51.5 45.5t-54 51.5q-17 16 -38 37.5t-39.5 47t-31.5 56
t-14 65.5q-3 70 33 120t101 64q32 6 64 -7.5t58 -32.5q30 -22 56 -53zM621 571q13 0 25 -1q11 -1 22.5 -3t20.5 -6t19 -10.5t19 -12.5l20 -16q6 6 13 11q6 5 15 10.5t21 12.5t27.5 10.5t32 2.5t32.5 -6.5t27 -17.5q31 -33 37 -64.5t-1.5 -59t-22.5 -48.5t-27 -33
q-23 -23 -43.5 -40t-50.5 -39q-16 -11 -33.5 -19t-26.5 -8t-19.5 8t-25.5 20q-6 5 -13 11t-12 11l-12 12q11 20 18 45q6 21 9 49.5t-3 61.5q-7 32 -18 54.5t-22 36.5q-13 17 -28 28z" />
    <glyph glyph-name="uF006A" unicode="&#xf006a;" 
d="M799 572q6 5 12 9l10 8q5 4 9 7q10 8 22.5 6.5t20.5 -9.5t9 -21.5t-7 -21.5q-3 -3 -8.5 -8t-10.5 -10q-6 -5 -13 -11q13 -16 26 -42t24 -57.5t18 -66.5t7 -69q0 -84 -32 -157.5t-86.5 -128t-128 -86.5t-157.5 -32t-157.5 32t-128 86.5t-86.5 128t-32 157.5t32 157.5
t86.5 128t128 86.5t157.5 32q86 0 160 -32.5t125 -85.5zM515 617q-69 0 -129.5 -26t-105.5 -71t-71 -105.5t-26 -129.5t26 -129.5t71 -105.5t105.5 -71t129.5 -26t129.5 26t105.5 71t71 105.5t26 129.5t-26 129.5t-71 105.5t-105.5 71t-129.5 26zM582 751q0 -14 -7 -25.5
t-17 -19.5t-21.5 -12t-21.5 -4q-11 0 -23 4t-22 12t-16.5 19t-6.5 26v56h135v-56zM533 275q-8 -6 -17 -5.5t-15 8.5q-6 7 -5 16t9 16l204 173q7 5 17 5t16 -7q6 -8 5 -17t-10 -17zM545 560q0 -12 -8.5 -21t-21.5 -9t-22 9t-9 21q0 13 9 22t22 9t21.5 -9t8.5 -22zM286 286
q0 -13 -9 -22t-22 -9t-21.5 9t-8.5 22t8.5 21.5t21.5 8.5t22 -8.5t9 -21.5zM544 19q0 -13 -8.5 -22t-21.5 -9t-22 9t-9 22t9 21.5t22 8.5t21.5 -8.5t8.5 -21.5zM803 286q0 -13 -9 -22t-21 -9q-13 0 -22 9t-9 22t9 21.5t22 8.5q12 0 21 -8.5t9 -21.5z" />
    <glyph glyph-name="uF006B" unicode="&#xf006b;" 
d="M955 269v-259q0 -136 -181 -136h-570q-44 0 -74.5 11t-50 31t-28 47.5t-8.5 60.5v245h912zM495 229q-11 -2 -20 -6q-8 -4 -14 -12.5t-6 -23.5v-53h-59q-14 0 -26.5 -10t-12.5 -29q-1 -18 12 -28.5t27 -10.5h59v-58q0 -9 9.5 -23t29.5 -14t29.5 14t9.5 25v56h61
q11 0 24 9.5t13 29.5q0 19 -12 29t-27 10h-59v57q0 11 -9.5 24.5t-28.5 13.5zM347 537q-2 21 2 43q3 19 11.5 40.5t27.5 41.5q15 16 39 27.5t51 15t56 -2t55 -22.5q26 -18 38.5 -42t17.5 -47q6 -26 5 -54h-55q1 13 -1 26q-2 11 -6 24t-12 24q-9 12 -20.5 18.5t-22.5 10
t-21 4.5t-14 1q-9 1 -27 -2.5t-41 -21.5q-11 -9 -17 -23t-8 -28q-3 -16 -2 -33h-56zM186 319h-145v22v23q0 13 1 27q0 14 5.5 31.5t19 32.5t34.5 25.5t53 10.5h75h125h148h146h120h68q25 0 46 -8t37 -22t25 -32.5t9 -39.5v-69h-147v32q0 11 -10 21.5t-24 10.5t-26.5 -8
t-12.5 -24v-33h-474v32q-1 13 -12 23t-25 10t-25.5 -11t-11.5 -25v-21q0 -4 1 -8z" />
    <glyph glyph-name="uF006C" unicode="&#xf006c;" 
d="M887 387q4 -72 -14 -130.5t-51.5 -104t-80.5 -78t-101 -52.5q-21 -8 -45.5 -28t-38.5 -41q-12 -18 -20 -36t-14 -32.5t-12 -23t-13 -8.5q-8 0 -13 7.5t-11 21t-14 32t-22 41.5q-6 9 -17 19.5t-23.5 20t-26 16.5t-23.5 10q-54 18 -100.5 51.5t-79.5 80.5t-50.5 106
t-13.5 128q5 81 39 149.5t87.5 118.5t122.5 78t143 28q76 0 145 -27t122.5 -76t87 -118t37.5 -153zM276 514q-27 0 -50.5 -10.5t-41.5 -28t-28 -41t-10 -50.5t10 -50.5t28 -41.5t41.5 -28t50.5 -10t50.5 10t41 28t27.5 41.5t10 50.5t-10 50.5t-27.5 41t-41 28t-50.5 10.5z
M722 514q-27 0 -50.5 -10t-41.5 -28t-28 -41.5t-10 -50.5t10 -50.5t28 -41.5t41.5 -28t50.5 -10t50.5 10t41.5 28t28 41.5t10 50.5t-10 50.5t-28 41.5t-41.5 28t-50.5 10zM478 248q-9 -2 -18.5 -9t-17 -17.5t-12.5 -23t-5 -24.5q0 -11 5 -18t12.5 -10t16 -3t14.5 3
q13 6 15 22.5t4 30.5q1 7 1.5 16t-1 16.5t-4.5 12.5t-10 4zM508 199q1 -14 4 -30.5t16 -22.5q6 -3 14 -3t15.5 3t13 10t5.5 18q0 12 -5 24.5t-12.5 23t-17 17.5t-18.5 9q-7 1 -10.5 -4t-4.5 -12.5t-1 -16.5t1 -16z" />
    <glyph glyph-name="uF006D" unicode="&#xf006d;" 
d="M612 -48q0 -22 -8.5 -41.5t-23 -34t-34 -23t-41.5 -8.5t-41.5 8.5t-33.5 23t-22.5 34t-8.5 41.5q0 45 30.5 75.5t75.5 30.5q22 0 41.5 -8.5t34 -22.5t23 -33.5t8.5 -41.5zM406 633q0 -29 -21.5 -50t-50.5 -21q-30 0 -51 21t-21 50q0 30 21 51t51 21q29 0 50.5 -21
t21.5 -51zM247 556q0 -29 -21 -50t-51 -21q-29 0 -50.5 21t-21.5 50q0 30 21.5 51t50.5 21q30 0 51 -21t21 -51zM247 394q0 -30 -21 -51t-51 -21q-29 0 -50.5 21t-21.5 51q0 29 21.5 50.5t50.5 21.5q30 0 51 -21.5t21 -50.5zM288 231q0 -30 -21 -51t-51 -21t-51 21t-21 51
t21 51t51 21t51 -21t21 -51zM371 68q0 -29 -21 -50.5t-51 -21.5t-51 21.5t-21 50.5q0 30 21 51t51 21t51 -21t21 -51zM573 679q0 -30 -21.5 -51t-50.5 -21q-30 0 -51 21t-21 51q0 29 21 50t51 21q29 0 50.5 -21t21.5 -50zM601 633q0 -29 21 -50t51 -21t51 21t21 50
q0 30 -21 51t-51 21t-51 -21t-21 -51zM759 556q0 -29 21.5 -50t50.5 -21q30 0 51 21t21 50q0 30 -21 51t-51 21q-29 0 -50.5 -21t-21.5 -51zM759 394q0 -30 21.5 -51t50.5 -21q30 0 51 21t21 51q0 29 -21 50.5t-51 21.5q-29 0 -50.5 -21.5t-21.5 -50.5zM719 231
q0 -30 21 -51t51 -21q29 0 50 21t21 51t-21 51t-50 21q-30 0 -51 -21t-21 -51zM636 68q0 -29 21 -50.5t51 -21.5q29 0 50 21.5t21 50.5q0 30 -21 51t-50 21q-30 0 -51 -21t-21 -51z" />
    <glyph glyph-name="uF006E" unicode="&#xf006e;" 
d="M510 698q2 0 5 2q6 4 16 14q12 11 24 16t32 -3q10 -3 16 -8.5t11.5 -10.5t12 -8.5t16.5 -3.5t17 3t13.5 5.5t13 3.5t15.5 -2q10 -4 13.5 -11.5t2 -15.5t-7 -16t-13.5 -13q-19 -12 -29 -24.5t-20 -26.5q-5 -7 -11 -16t-11 -18q-6 -11 -13 -21h-207q-7 12 -14 23
q-6 10 -13 20t-12 18q-10 15 -22.5 26.5t-24.5 20.5q-13 9 -18 24.5t9 26.5q7 5 16 4t19 -4t19.5 -6t17.5 -1q14 3 21 10.5t24 18.5q13 8 29 5.5t24 -10.5q4 -5 8.5 -8.5t9.5 -6.5q5 -4 11 -7zM623 498q12 -16 30 -35q15 -17 37 -38.5t51 -45.5q24 -21 49.5 -49.5
t44.5 -66.5t26.5 -87.5t-2.5 -110.5q-9 -50 -35.5 -94.5t-70.5 -77.5t-104.5 -52.5t-137.5 -19.5q-79 0 -140 22.5t-103.5 58.5t-67.5 80.5t-33 88.5q-9 49 -2.5 94t23.5 84.5t42.5 72.5t55.5 59q26 23 47 43.5t35 37.5q17 19 30 36h225zM517 191l-27 27l-21 21
q-10 10 -14 15q-8 7 -21 11.5t-22 -5.5q-8 -11 -4 -21.5t9 -16.5l15 -14q11 -12 24 -26q15 -16 33 -34l-1 -21h-68q-9 0 -15.5 -7t-6.5 -15t6 -14t16 -6h68v-35h-68q-9 0 -15.5 -5.5t-6.5 -14.5q-1 -8 5.5 -13.5t16.5 -5.5h68v-20q1 -14 9 -19.5t20 -5.5q12 -1 19.5 7.5
t7.5 17.5v20h70q10 0 16.5 4.5t5.5 14.5q0 21 -28 21h-64l1 34l65 1q14 -1 20 5.5t6 15.5q0 8 -6.5 14.5t-20.5 6.5h-65v19q17 16 31 31q12 12 24 24.5t18 17.5q23 20 10 35q-7 9 -18 9t-20 -8q-5 -4 -17 -14.5t-24 -21.5q-14 -13 -31 -29z" />
    <glyph glyph-name="uF006F" unicode="&#xf006f;" 
d="M704 113q-3 15 -17.5 19t-33.5 -0.5t-39.5 -17t-36.5 -30.5q-20 -23 -53.5 -33t-64.5 -11q-2 -10 -9.5 -16.5t-18.5 -6.5h-39q-18 0 -21 19q-8 0 -18.5 0.5t-23.5 -0.5q-7 -19 -28 -19h-37q-11 0 -18.5 6.5t-9.5 16.5q-10 1 -19 1.5t-19 1.5q-7 -17 -26 -17h-37
q-13 0 -21.5 8.5t-8.5 20.5q-25 3 -38 6q-8 2 -13 3q-9 10 -14 25q-5 13 -8 31.5t1 44.5q4 31 16 47t31 23.5t45 9t59 1.5q42 0 74.5 11t57 25.5t43 30t33.5 25.5q38 28 60 50t36 47q9 18 12 37t1 42q-1 26 16.5 43.5t41.5 17.5q20 0 38.5 -5t38.5 -13q39 -15 73 -18.5
t55 1.5q37 9 65 13t51 -10q16 -11 21.5 -25.5t6.5 -30.5t0 -30t3 -23q8 -18 18.5 -58t16.5 -109q3 -30 3.5 -57.5t0 -49t-2 -34t-4.5 -12.5zM703 64q-1 4 -0.5 12t0.5 16q0 10 1 21l239 1q-1 -12 -1 -23q-1 -9 -1 -19t-2 -15q-2 -11 -10 -15t-19 -5h-168q-18 0 -28 7.5
t-11 19.5zM428 245q11 0 19.5 8.5t8.5 20.5t-8.5 20.5t-19.5 8.5q-12 0 -20.5 -8.5t-8.5 -20.5t8.5 -20.5t20.5 -8.5zM506 300q12 0 20 8.5t8 19.5q0 12 -8 20t-20 8q-11 0 -19.5 -8t-8.5 -20q0 -11 8.5 -19.5t19.5 -8.5zM570 376q11 0 19.5 8t8.5 19t-8.5 19t-19.5 8
t-19 -8t-8 -19t8 -19t19 -8z" />
    <glyph glyph-name="uF0070" unicode="&#xf0070;" 
d="M881 614q42 -1 63 -23.5t21 -59.5v-41q0 -36 -0.5 -86.5t-0.5 -109t-0.5 -109.5t-0.5 -88v-44q0 -32 -18.5 -53.5t-45.5 -21.5h-766q-32 1 -56 23.5t-24 58.5v470q0 16 5.5 31t16 27t25.5 19.5t35 7.5h43h86h114h130h128q64 0 115.5 -0.5t86.5 -0.5h43zM837 520h-678
l1 -442l676 1zM903 334q-15 0 -26 -10.5t-11 -25.5t11 -25.5t26 -10.5t26 10.5t11 25.5t-11 25.5t-26 10.5z" />
    <glyph glyph-name="uF0071" unicode="&#xf0071;" 
d="M281 335v400q0 30 10 48.5t44 18.5h313q29 0 45.5 -10.5t16.5 -40.5v-416h-429zM359 748q-11 0 -15.5 -6.5t-4.5 -17.5v-318q0 -22 20 -22q8 0 14.5 5.5t6.5 16.5v318q0 12 -6.5 18t-14.5 6zM710 297v-293q0 -11 -1.5 -21.5t-12.5 -23.5q-6 -7 -14 -10.5t-16 -5.5
q-9 -3 -18 -3q0 -11 -2 -19q-2 -7 -6.5 -12.5t-14.5 -5.5q-11 -1 -15.5 5t-6.5 13q-3 8 -2 19h-218q0 -10 -2 -19q-2 -8 -6.5 -14t-15.5 -6t-16 5.5t-7 13.5q-3 9 -1 20q-1 -1 -4 0q-2 1 -7 2t-13 5q-16 6 -23 19t-7 30v301h429zM360 255q-9 0 -15 -6.5t-6 -17.5
q0 -3 0.5 -19t0.5 -38v-49v-49v-40v-22q-1 -14 3.5 -23.5t16.5 -9.5t16 7t4 18v226q0 10 -5 16.5t-15 6.5z" />
    <glyph glyph-name="uF0072" unicode="&#xf0072;" 
d="M390 788q3 11 6 12.5t8 1.5q3 0 13.5 -1.5t26 -6.5t35.5 -15.5t41 -28.5q23 -20 44 -46.5t36 -49.5q18 -27 32 -55q22 -17 44 -41q19 -20 41.5 -50t44.5 -70q23 -42 35.5 -79.5t18.5 -65.5q7 -33 9 -60h-649q2 27 9 60q6 28 18 63.5t34 76.5q28 54 65 98t66 67
q18 15 31 33t21 49q4 15 1.5 29t-7.5 25.5t-11.5 19t-10.5 10.5q-7 5 -5.5 12t3.5 12zM825 181q-1 -19 -3 -39q-2 -17 -5 -38.5t-8 -43.5q-3 -12 -9.5 -32.5t-16.5 -42t-23.5 -41.5t-31.5 -31q-16 -10 -43.5 -16.5t-60 -10t-65 -4.5t-59.5 -1q-26 0 -62 2t-70 6.5t-61 10
t-35 13.5q-14 14 -34 42t-37 76q-10 26 -15 52.5t-7 48.5q-3 26 -3 49h649zM500 137q-36 0 -61.5 -25.5t-25.5 -62.5q0 -36 25.5 -61.5t61.5 -25.5q37 0 62.5 25.5t25.5 61.5q0 37 -25.5 62.5t-62.5 25.5zM551 50q0 -21 -15 -36t-36 -15t-36 15t-15 36t15 36t36 15t36 -15
t15 -36z" />
    <glyph glyph-name="uF0073" unicode="&#xf0073;" 
d="M650 296q-17 -1 -32 -3q-13 -2 -26 -3.5t-21 -3.5q-21 -5 -33 -17t-18 -31q-7 -19 -25 -46.5t-48 -53t-71.5 -43.5t-95.5 -18t-101.5 20t-82 56t-54.5 84t-20 104q0 33 14 76.5t45 82.5t80 66t119 27q67 0 112 -23.5t73 -52.5t41 -56t15 -33q5 -13 18 -24.5t28 -16.5
q10 -3 23.5 -5t27.5 -4q15 -2 32 -3v-79zM283 548q-44 0 -83 -16.5t-68 -45.5t-46 -68t-17 -83t17 -83t46 -68t68 -46t83 -17t83 17t68 46t46 68t17 83t-17 83t-46 68t-68 45.5t-83 16.5zM458 335q0 -36 -13.5 -68t-37.5 -56t-56 -38t-68 -14t-68 14t-56 38t-37.5 56
t-13.5 68t13.5 68t37.5 56t56 37.5t68 13.5t68 -13.5t56 -37.5t37.5 -56t13.5 -68zM689 375h121h46h41h32h17q17 0 26 -11t9 -29q0 -19 -9.5 -30t-23.5 -11h-259v81zM935 360q-11 0 -18 -7.5t-7 -17.5q0 -11 7 -18t18 -7t18.5 7t7.5 18q0 10 -7.5 17.5t-18.5 7.5z" />
    <glyph glyph-name="uF0074" unicode="&#xf0074;" 
d="M339 -22q0 -18 -7 -33.5t-18.5 -27t-27 -18.5t-33.5 -7t-34 7t-27.5 18.5t-18.5 27t-7 33.5q0 36 25.5 61.5t61.5 25.5q18 0 33.5 -7t27 -18.5t18.5 -27.5t7 -34zM253 6q-12 0 -20 -8t-8 -20q0 -11 8 -19t20 -8q11 0 19 8t8 19q0 12 -8 20t-19 8zM79 445q-4 8 -7 15
q-2 6 -4 13t0 13q5 11 19 10.5t30 -2.5q8 -2 13.5 2t8 9.5t1 12t-7.5 10.5q-34 23 -26 45q5 13 19 13t27 -5q7 -2 12 1t7.5 8.5t2.5 12t-4 9.5q-8 8 -16.5 21.5t-0.5 23.5q8 12 23.5 8.5t26.5 -10.5q5 -2 10.5 -1t9.5 4.5t5.5 9.5t-1.5 13q-7 14 -6.5 29t8.5 20
q11 5 23.5 -2t20.5 -18q9 -13 21 -10t11 16q-3 38 11 44q8 4 21.5 -4.5t26.5 -44.5q1 -5 6 -18.5t11.5 -33t14 -43t15.5 -47.5l41 -123zM653 -22q0 -18 -7 -33.5t-18.5 -27t-27 -18.5t-33.5 -7t-33.5 7t-27.5 18.5t-18.5 27t-6.5 33.5q0 36 25 61.5t61 25.5q18 0 33.5 -7
t27 -18.5t18.5 -27.5t7 -34zM567 6q-12 0 -20 -8t-8 -20q0 -11 8 -19t20 -8q11 0 19 8t8 19q0 12 -8 20t-19 8zM88 392q7 -37 20 -76q11 -33 29.5 -71.5t47.5 -70.5q23 -27 44.5 -40.5t40 -19.5t32.5 -6.5t23 -1.5q40 -4 85.5 -3t80.5 3q39 2 74 19.5t75 64.5q24 29 40.5 64
t26.5 66q11 36 18 72h-51q35 61 66 114q13 22 26.5 45t26 43t23 35.5t16.5 24.5q8 10 19.5 17.5t24 10.5t25 1.5t22.5 -9.5q17 -13 30.5 -16t23.5 8q6 7 5.5 14.5t-5 14.5t-11 12.5t-12.5 9.5q-4 3 -13.5 7t-22.5 7t-28 3.5t-31 -4.5q-32 -10 -49.5 -29t-33.5 -44
q-4 -6 -13 -21t-21 -34.5t-25.5 -43t-27.5 -46.5q-33 -55 -72 -121z" />
    <glyph glyph-name="uF0075" unicode="&#xf0075;" 
d="M357 796q12 2 18.5 -10t14.5 -26q3 -7 17.5 -26.5t31 -41.5t31 -41t17.5 -25q8 -13 9 -20.5t-12 -6.5q-6 1 -15.5 -1.5t-19 -6.5t-18 -9.5t-12.5 -9.5q-5 -6 -9.5 -5.5t-8.5 5.5t-7.5 12.5t-4.5 15.5q-2 10 -7 29t-11 40.5t-11 42.5t-8 35q-5 25 -3.5 36t8.5 13zM647 796
q7 -2 8.5 -13t-3.5 -36q-3 -14 -8 -35t-11 -42.5t-11 -40.5t-7 -29q-2 -8 -5 -15.5t-7 -12.5t-9 -5.5t-10 5.5q-3 4 -11.5 9.5t-18.5 9.5t-19 6.5t-15 1.5q-13 -1 -12 6.5t8 20.5q4 6 18 25t30.5 41t31 41.5t18.5 26.5q8 14 14.5 26t18.5 10zM478 397h46l1 141h9q5 0 10 0.5
t13 0.5q7 0 15 -5l16 -8q8 -5 15.5 -8.5t13.5 -2.5q6 0 13 11t14.5 27t14 33.5t12.5 30.5q5 13 10 31t8 35q4 19 6 40l36 -6q15 -3 31 -6t27 -5q10 -3 18 -5t15 -6.5t14.5 -11.5t17.5 -19t25 -35.5t30.5 -49.5t28.5 -49t18 -34q7 -14 2.5 -18t-9.5 -8q-6 -4 -20 -13.5
t-31 -20.5t-34 -20.5t-28 -13.5t-14.5 -2.5t-6.5 6.5q-2 3 -8 11.5t-13 18t-13 18t-8 10.5q-4 5 -10 0.5t-6 -20.5q0 -8 -0.5 -27.5t-0.5 -48.5v-63v-73q0 -103 -2.5 -165t-4.5 -97q-3 -40 -6 -58h-484q-3 29 -6 64q-2 30 -4.5 71t-1.5 89v79q0 41 -0.5 78t-1 65.5
t-0.5 42.5v45q0 17 -9 19q-5 1 -9.5 -3t-9.5 -11t-9.5 -15t-8.5 -14q-8 -11 -12.5 -16t-7.5 -6t-5 0l-8 3q-13 4 -30.5 13.5t-34 20t-29 19.5t-16.5 12q-8 5 -11.5 8t1.5 19q3 8 13.5 28t25 43.5t29.5 47t27 40.5q17 25 33.5 36t39.5 16q11 2 27.5 4.5t30.5 5.5q17 4 35 7
q4 -21 8 -40q4 -17 7.5 -34.5t7.5 -28.5q3 -11 10 -27.5t14.5 -32.5t15 -28.5t12.5 -15.5q10 -5 23 5t30 15q8 2 16 2.5t14 0.5q7 -1 13 -2v-140z" />
    <glyph glyph-name="uF0076" unicode="&#xf0076;" 
d="M314 790l17 -51l11 -33q45 4 93 2q41 -2 89.5 -9.5t94.5 -27.5q30 -13 45.5 -28.5t18 -31.5t-8.5 -31.5t-33 -28.5q-45 -27 -108 -40t-139 -13q-85 0 -144 14t-94 33q-18 9 -31 21t-17.5 25t0 27t22.5 29t40.5 24.5t42.5 15.5q24 7 48 11q-1 11 -2 25q-1 11 -1.5 27
t-1.5 35q-1 33 2 59.5t14 26.5q5 0 11 -9.5t12 -22t11 -26.5t8 -23zM355 663l39 -116q26 -3 52 -3q23 0 49.5 2.5t51.5 10.5q27 8 47 18t27.5 21.5t0 23.5t-37.5 24q-33 13 -68.5 18t-67.5 5.5t-57 -1.5t-36 -3zM394 442q-23 0 -49 3q-22 2 -50 5.5t-57 10.5q-29 6 -52 15.5
t-39 18.5q-18 11 -33 21v-475q0 -6 -0.5 -16t2.5 -20.5t12 -20.5t27 -18q39 -18 101.5 -34t137.5 -16q35 0 72 5t70.5 12.5t60 16.5t40.5 18t22 16.5t11.5 18.5t4 26.5t0.5 39.5v447q-18 -14 -43 -26q-22 -11 -53.5 -21.5t-73.5 -16.5q-32 -5 -53 -7t-34 -3q-15 -1 -24 0z
M834 550q-11 0 -23.5 -5.5t-24.5 -16.5t-20.5 -28.5t-9.5 -42.5q-2 -22 2 -38t10 -26.5t12 -17t9 -8.5q9 -7 18 -10q5 -3 10 -4v-317q0 -25 17 -26q18 0 18 25v317q6 1 13 4q13 5 26 19q6 7 12 21.5t8.5 31.5t0.5 36t-11 37q-17 34 -34.5 41.5t-32.5 7.5z" />
    <glyph glyph-name="uF0077" unicode="&#xf0077;" 
d="M142 489h766v92q-7 4 -11 10q-5 5 -8 13t-3 19q0 18 13 32.5t35 14.5q23 0 36 -14.5t13 -33.5q0 -11 -3.5 -18.5t-7.5 -12.5q-5 -6 -11 -10v-534h-54v-35q0 -14 -6.5 -22.5t-22.5 -8.5q-16 -1 -22.5 8.5t-6.5 21.5v36h-649v-40q0 -14 -8 -20.5t-21 -5.5q-14 0 -21.5 8.5
t-7.5 17.5v25v15h-53v533q-7 4 -11 10q-5 5 -8 12.5t-3 18.5q1 24 16.5 36t32.5 12q14 0 31 -11t17 -35q0 -11 -3.5 -19.5t-7.5 -13.5q-5 -6 -11 -10v-91zM142 120h86v316h-86v-316zM342 436h-86v-316h86v316zM455 436h-86v-316h86v316zM568 436h-86v-316h86v316zM681 436
h-86v-316h86v316zM794 436h-85v-316h85v316zM907 436h-85v-316h85v316z" />
    <glyph glyph-name="uF0078" unicode="&#xf0078;" 
d="M817 41q0 -33 -21.5 -55.5t-63.5 -22.5h-382q-20 0 -36 7.5t-27.5 19.5t-18 27.5t-6.5 31.5v748q0 34 19.5 55.5t64.5 21.5h385q47 0 66.5 -20.5t19.5 -62.5v-750zM733 792l-388 -1l-1 -334l390 -1zM540 385q-35 0 -65.5 -13t-53.5 -36t-36 -53.5t-13 -65.5t13 -65
t36 -53t53.5 -36t65.5 -13q34 0 64.5 13t53.5 36t36 53t13 65t-13 65.5t-36 53.5t-53.5 36t-64.5 13zM626 218q0 -18 -7 -33.5t-18.5 -27.5t-27 -18.5t-33.5 -6.5q-36 0 -61 25t-25 61q0 18 6.5 33.5t18.5 27t27.5 18.5t33.5 7t33.5 -7t27 -18.5t18.5 -27t7 -33.5z" />
    <glyph glyph-name="uF0079" unicode="&#xf0079;" 
d="M889 724q47 0 62.5 -20.5t15.5 -57.5v-438q0 -44 -18.5 -70t-67.5 -26h-740q-24 0 -39.5 8t-25.5 21.5t-14 30.5t-4 36v438q0 36 17.5 57t59.5 21h754zM552 143q12 0 19 6t7 14q0 9 -5 15t-19 6h-89q-11 0 -16.5 -6t-5.5 -15q0 -8 5.5 -14t16.5 -6h87zM889 645l-754 1
v-433h754v432zM524 464q0 -5 -3.5 -8.5t-8.5 -3.5t-8 3.5t-3 8.5v54q0 5 3 9t8 4t8.5 -3.5t3.5 -8.5v-55zM615 436q-2 -4 -7.5 -6.5t-9.5 0.5q-9 7 -3 16l31 44q3 4 8.5 5.5t9.5 -0.5q4 -3 3.5 -9t-2.5 -9zM374 475q-2 4 -2.5 9.5t4.5 8.5q4 2 9 0t7 -5l30 -42q2 -3 1.5 -8
t-4.5 -8q-9 -6 -16 3zM366 365q5 0 8.5 -3.5t3.5 -8.5t-3.5 -8t-8.5 -3h-55q-4 0 -7.5 3t-3.5 8t3.5 8.5t7.5 3.5h55zM706 365q11 0 11 -12q0 -5 -3.5 -8t-7.5 -3h-54q-10 0 -10 11q0 12 10 12h54z" />
    <glyph glyph-name="uF007A" unicode="&#xf007a;" 
d="M207 62q0 -9 -8.5 -17.5t-20.5 -8.5q-11 0 -19.5 8t-8.5 19v56h57v-57zM159 654q15 0 33 4q15 4 34.5 12.5t40.5 25.5q28 22 55 41.5t56 34t61 23t71 8.5q64 0 124 -27.5t110 -68.5q24 -21 45 -31.5t37 -15.5q18 -5 34 -6v104q0 7 2 13q2 5 5 9t11 4q7 0 10 -4t5 -9
t2 -12l1 -260h-772v261q0 7 2 12t5.5 8.5t10.5 3.5q6 0 9.5 -3.5t5.5 -8.5t2 -11v-107zM893 453l73 -152v-107q-4 -15 -9 -26q-5 -10 -13 -18t-22 -8t-20 8.5t-11.5 18.5t-12.5 18.5t-22 8.5q-13 0 -19.5 -8.5t-12 -18.5t-13.5 -18t-24 -8q-18 1 -26 9t-13.5 18t-11.5 18
t-20 8t-20.5 -8.5t-12.5 -18t-13.5 -18t-23.5 -8.5q-13 0 -20 8.5t-13.5 18t-13.5 18t-20 8.5q-12 0 -19 -8.5t-13 -18.5t-14 -18.5t-23 -8.5t-23.5 8.5t-14.5 18.5t-12.5 18.5t-18.5 8.5q-13 0 -19.5 -8t-11.5 -18t-13 -18.5t-24 -8.5q-17 0 -24.5 8.5t-13 18t-12 18
t-21.5 8.5t-21.5 -8.5t-12 -18t-13 -18t-23.5 -8.5t-24.5 8t-14 18t-11.5 17.5t-17 7.5t-18 -8t-13.5 -17.5t-15 -17.5t-21.5 -8q-14 0 -22 7.5t-13 16.5q-5 11 -8 25v109l67 152h772zM862 64q0 -12 -8.5 -20t-19.5 -8t-19 8t-8 19v56h55v-55z" />
    <glyph glyph-name="uF007B" unicode="&#xf007b;" 
d="M633 -8q-89 -29 -178.5 -21t-167 47t-137 106t-88.5 156t-21 178.5t47 167.5t106.5 137.5t156.5 88.5t178.5 21t167 -47.5t137 -106.5t88.5 -156t21 -178.5t-47 -167t-106.5 -137t-156.5 -88.5zM840 538q-24 72 -72 126.5t-110.5 86t-135 38t-144.5 -17.5t-126.5 -72
t-86 -110.5t-38.5 -135t17 -144.5t72 -126.5t111 -86t135.5 -38t144.5 17.5t126.5 72t86 110.5t38 135t-17.5 144.5zM595 108q-65 -21 -130 -15.5t-122 34t-100.5 77.5t-64.5 114t-15.5 130.5t34 122.5t78 100.5t114.5 64.5t130 15t122 -34.5t100.5 -77.5t64.5 -114
t15.5 -130.5t-34 -122t-78 -100t-114.5 -64.5zM492 483q-26 0 -43.5 -17.5t-17.5 -43.5t17.5 -44t43.5 -18t44 18t18 44t-18 43.5t-44 17.5zM260 583l142 -82q5 3 10 7q5 3 9.5 7t9.5 7q12 7 23 10q6 2 12 3v164q-17 -1 -35 -5q-16 -4 -36 -10.5t-43 -19.5
q-26 -15 -43.5 -29.5t-28.5 -25.5q-12 -13 -20 -26zM235 304l143 82q-2 6 -3 12q-1 5 -1.5 11t-0.5 12q0 14 3 25q1 6 3 12l-141 82q-7 -14 -13 -32q-5 -15 -9.5 -36.5t-4.5 -47.5q-1 -30 3 -52.5t9 -37.5q5 -18 12 -30zM465 143l1 165q-6 1 -12 4q-11 3 -21 10q-6 3 -11 7
t-9 8t-9 8l-141 -81q9 -14 21 -28q11 -12 27 -26t39 -28q25 -15 46.5 -23t36.5 -12q18 -4 32 -4zM723 259l-142 82q-5 -4 -9 -8q-4 -3 -9 -6.5t-10 -6.5q-6 -4 -12.5 -6t-11.5 -4q-6 -2 -11 -3v-164q16 1 34 5q16 3 36.5 10t43.5 20q26 14 43 28.5t28 26.5q12 13 20 26z
M748 540l-142 -82l2 -12q1 -5 1.5 -11.5t0.5 -11.5q0 -7 -1 -14t-2 -12q-2 -6 -3 -12l141 -81q7 14 13 32q5 15 9.5 36.5t4.5 47.5q0 29 -3.5 52t-8.5 38q-5 18 -12 30zM519 701v-165l12 -4q5 -2 10.5 -4.5t10.5 -5.5q5 -4 10.5 -7.5t9.5 -7.5l9 -9l141 82q-9 13 -21 27
q-11 12 -27 26.5t-39 28.5q-26 15 -47.5 22.5t-36.5 11.5q-18 4 -32 5z" />
    <glyph glyph-name="uF007C" unicode="&#xf007c;" 
d="M842 435q45 0 85 -17t69.5 -47t46.5 -69.5t17 -84.5t-17 -85t-46.5 -69.5t-69.5 -46.5t-85 -17t-84.5 17t-69 46.5t-46.5 69.5t-17 85q0 30 7 55q2 7 4 13.5t4 13.5l15 45l-326 60q48 -29 77 -78t29 -109q0 -45 -17 -85t-47 -69.5t-69.5 -46.5t-84.5 -17t-84.5 17
t-69.5 46.5t-47 69.5t-17 85t17 84.5t47 69.5t69.5 47t84.5 17q5 0 9 -0.5t8 -0.5q18 59 36 121t33 115t26.5 91.5t15.5 51.5q6 22 21.5 31t31 6.5t26 -13.5t6.5 -29q-1 -6 -5 -21.5t-11 -38.5l82 -1l-1 -35l-91 1q-12 -42 -27 -94t-32 -108l349 -50l34 103h-106
q-7 11 -10 22q-2 9 -1 17t12 13q11 4 38.5 9.5t58.5 8.5t58.5 1.5t38.5 -9.5t12 -18.5t-2 -20.5q-4 -11 -12 -23h-21l-45 -129h90h3zM371 218q0 42 -20 77.5t-54 55.5q-19 -63 -32.5 -108t-17.5 -57q-6 -18 -22 -24t-31 -3t-25 14t-4 28q4 12 18 60t34 114h-3
q-33 0 -61.5 -12.5t-49.5 -33.5t-33.5 -49.5t-12.5 -61.5t12.5 -61.5t33.5 -50t49.5 -34t61.5 -12.5t61.5 12.5t49.5 34t33.5 50t12.5 61.5zM840 60q32 0 60.5 12.5t50 34t34 50t12.5 61.5t-12.5 61.5t-34 49.5t-50 33.5t-60.5 12.5h-7q-48 -2 -85 -28.5t-54 -67.5l-6 -18
q-6 -21 -6 -43q0 -33 12.5 -61.5t34 -50t50 -34t61.5 -12.5zM559 311q26 0 44.5 -18.5t18.5 -44.5t-18.5 -44.5t-44.5 -18.5t-44 18.5t-18 44.5t18 44.5t44 18.5z" />
    <glyph glyph-name="uF007D" unicode="&#xf007d;" 
d="M841 212q0 -14 -9 -22.5t-21 -8.5q-16 0 -24 10.5t-8 22.5v23l-566 -1v-23q0 -12 -8 -21.5t-22 -9.5q-14 -1 -23 8t-10 23v24q-39 3 -62 21.5t-35.5 42t-16 46.5t-3.5 34q0 30 12 56t30.5 45.5t41.5 31t44 11.5h689q21 0 43.5 -11.5t40.5 -31t29.5 -45.5t11.5 -56
q0 -32 -13 -58.5t-33 -45.5t-43.5 -29.5t-44.5 -10.5v-25zM225 465h-23v-162h23v162zM285 465h-23v-162h23v162zM343 465h-22v-162h22v162zM402 465h-23v-162h23v162zM164 465h-22v-162h22v162zM752 489q-22 0 -41.5 -8.5t-34 -23t-23 -34t-8.5 -41.5t8.5 -41.5t23 -34
t34 -23t41.5 -8.5t41.5 8.5t34 23t23 34t8.5 41.5t-8.5 41.5t-23 34t-34 23t-41.5 8.5zM817 382q0 -27 -19 -46t-46 -19t-46 19t-19 46t19 46t46 19t46 -19t19 -46z" />
    <glyph glyph-name="uF007E" unicode="&#xf007e;" 
d="M375 41q0 -13 -10.5 -18t-18.5 -5h-299v46h298q8 0 19 -4.5t11 -18.5zM238 655l-92 -339q13 -3 27 -10q12 -6 26 -17.5t27 -28.5q12 -17 18 -32.5t8 -27.5q3 -14 2 -27h678q11 0 20 -4q8 -3 14.5 -9.5t6.5 -18.5q0 -13 -6 -19.5t-13 -9.5q-8 -4 -18 -4h-856
q-23 0 -30.5 8t-9.5 19t4 27l150 533l-71 58q-10 8 -15 18q-5 8 -6 18t8 20q9 11 19 12.5t19 -1.5q10 -4 20 -11l192 -163h275q9 0 17 -4q7 -3 12.5 -8.5t5.5 -15.5q0 -11 -5 -16.5t-11 -8.5q-7 -4 -15 -4h-321z" />
    <glyph glyph-name="uF007F" unicode="&#xf007f;" 
d="M969 644q0 -13 -10.5 -21t-27.5 -8h-880q-11 0 -21.5 7t-10.5 22t10 22t21 7h881q17 0 27.5 -8t10.5 -21zM901 119h-45v456h45v-456zM811 402h-338v150h338v-150zM647 502q-13 0 -21.5 -8.5t-8.5 -20.5q0 -13 8.5 -21.5t21.5 -8.5q12 0 20.5 8.5t8.5 21.5q0 12 -8.5 20.5
t-20.5 8.5zM132 544h212q23 0 32 -9.5t9 -28.5v-290q0 -40 -44 -41h-209v-56h-42v455h42v-30zM355 428h-208v-22h208v22zM355 299h-208v-22h208v22z" />
    <glyph glyph-name="uF0080" unicode="&#xf0080;" 
d="M174 368q-8 -1 -17 -1h-16q-8 0 -15 1q-10 1 -19 5t-17.5 8.5t-16.5 8.5t-15 5q-15 2 -28.5 2t-15.5 -13q-3 -16 6.5 -22t16.5 -9q11 -5 28 -22t38 -24q10 -4 23 -5.5t25 -1.5q14 0 28 1q3 -34 13 -67q8 -28 23 -59t39 -54q25 -23 65.5 -34t79.5 -15q46 -4 96 -3
q52 -2 100 3q41 4 81.5 15.5t63.5 36.5q26 29 41 61t22 58q8 31 9 59h62q7 0 15.5 4t16.5 9.5t15.5 11.5t11.5 10q9 7 18 13t20 11q10 4 10 16.5t-11 15.5q-17 5 -36.5 0.5t-36.5 -15.5q-8 -5 -19.5 -7.5t-23 -3.5t-22 -0.5t-16.5 0.5h-32q-30 0 -75.5 0.5t-102.5 0.5h-117
h-315zM535 580q5 -13 6.5 -27t0.5 -25q-1 -14 -3 -27q18 0 38 -1q17 -1 40 -2.5t49 -5.5q51 -7 79 -20t42 -27q13 -13 15 -22q1 -4 0 -8h-635q-2 13 14 30t61 34q23 8 55 13t61 7q34 3 71 3q-2 14 -2 28q0 12 1.5 25.5t7.5 24.5q5 11 13.5 17t16.5 8q9 3 18 3q17 1 31 -5.5
t20 -22.5zM484 576q-10 0 -17 -7t-7 -18q0 -10 7 -17t17 -7q11 0 18 7t7 17q0 11 -7 18t-18 7z" />
    <glyph glyph-name="uF0081" unicode="&#xf0081;" 
d="M673 206h-438v25h438v-25zM961 741q-24 -151 -48 -280q-10 -55 -21 -111t-22 -104.5t-21 -87t-19 -59.5q-18 -43 -52 -73t-79.5 -48.5t-100.5 -28t-115 -11.5q-30 -1 -67.5 -1t-77.5 4.5t-78.5 15.5t-71.5 32q-29 18 -51 45.5t-37.5 55t-24.5 51t-11 34.5
q-7 34 -1.5 65.5t35.5 56.5q20 16 57 33.5t86.5 32t108.5 23.5t124 9q73 -1 130 -10.5t98.5 -14.5t66 0.5t31.5 34.5q13 57 25.5 119.5t22.5 114.5q11 61 21 120zM471 323q-57 -1 -107.5 -8.5t-91 -19t-68.5 -24.5t-41 -25q-20 -19 -19 -42.5t12 -55.5q5 -14 13 -31
t23.5 -34.5t40 -34t62.5 -29.5q18 -6 50 -9.5t71 -3.5t82 2.5t82 9t71 16.5t50 24q31 24 52 56.5t29.5 64t5 57t-20.5 35.5q-16 10 -44 19.5t-65.5 17t-84.5 12t-102 3.5zM816 480l97 -18l7 38l-96 17zM589 136h-354v24h354v-24zM485 70h-250v23h250v-23z" />
    <glyph glyph-name="uF0082" unicode="&#xf0082;" 
d="M561 576q0 -23 -17 -40t-40 -17t-40 17t-17 40t17 40t40 17t40 -17t17 -40zM790 -29q0 -36 -19.5 -56t-64.5 -20h-393q-45 0 -68 22.5t-23 60.5v738q0 45 19.5 65t70.5 19l400 1q46 0 62 -23t16 -57v-750zM504 730q-32 0 -60 -12t-49 -33t-33 -49t-12 -60t12 -60t33 -49
t49 -33t60 -12t60 12t49 33t33 49t12 60t-12 60t-33 49t-49 33t-60 12zM504 341q-39 0 -72.5 -14.5t-59 -40t-40 -59t-14.5 -72.5t14.5 -72.5t40 -59t59 -40t72.5 -14.5t72.5 14.5t59 40t40 59t14.5 72.5t-14.5 72.5t-40 59t-59 40t-72.5 14.5zM561 155q0 -23 -17 -39.5
t-40 -16.5t-40 16.5t-17 39.5q0 24 17 40.5t40 16.5t40 -16.5t17 -40.5z" />
    <glyph glyph-name="uF0083" unicode="&#xf0083;" 
d="M503 560q21 24 48 42q23 16 55.5 28t74.5 10q23 -2 40.5 -9t29.5 -15q13 -10 23 -22v183q0 14 8 21t16 7q9 0 16 -6t7 -20v-227q0 -45 -18.5 -78t-47.5 -52.5t-65.5 -25.5t-72.5 3q-38 9 -60.5 29t-34.5 40q-14 24 -19 51q-3 -9 -6 -17q-2 -7 -5.5 -14t-5.5 -12
q-2 -3 -10 -17t-25.5 -29t-46 -26t-71.5 -8q-48 3 -77 21.5t-44.5 42t-20.5 46.5t-5 35v236q0 14 7 21t18 6q9 0 15.5 -6.5t6.5 -18.5q-1 -6 -0.5 -35.5t0.5 -62.5v-85q11 13 27 23q14 8 34.5 15t49.5 6q33 -1 62 -13.5t51 -27.5q26 -18 46 -39zM786 229q20 0 22 -10t-1 -18
q-5 -15 -34.5 -28.5t-81.5 -37.5q-27 -13 -51 -39.5t-43 -56t-31 -56.5t-14 -39q-6 -33 -21 -43t-28 -10q-6 0 -13 1.5t-13.5 6.5t-12 16t-8.5 29t-17.5 45t-33.5 54.5t-41 51.5t-40 35q-17 10 -35 17.5t-34.5 14.5t-29 13.5t-17.5 13.5q-13 17 -9.5 28.5t21.5 11.5h284h282
z" />
    <glyph glyph-name="uF0084" unicode="&#xf0084;" 
d="M966 137q0 -20 -15.5 -33.5t-45.5 -13.5h-797q-29 0 -44 13.5t-15 33.5t16 33.5t45 13.5h795q30 0 45.5 -13.5t15.5 -33.5zM508 608q21 0 45 -1t51 -8.5t56.5 -23t61.5 -44.5q37 -34 53 -83.5t21 -95.5q5 -55 -1 -112h-574q-6 48 -2 97q3 42 16 90t45 89q39 49 100.5 71
t127.5 21z" />
    <glyph glyph-name="uF0085" unicode="&#xf0085;" 
d="M551 706v-155q0 -14 9.5 -34t35.5 -37q23 -15 40 -42.5t18 -56.5v-41v-80q0 -46 -0.5 -97.5t-0.5 -96.5v-74v-33q0 -10 -2 -21t-8.5 -22t-19 -20.5t-33.5 -15.5q-38 -11 -84 -10.5t-93 10.5q-23 5 -36.5 14t-21 20t-9.5 22.5t-2 20.5v417q1 45 19.5 69.5t36.5 36.5
q16 11 30.5 30.5t15.5 35.5v160h105zM576 256h-155v-162h155v162zM498 827q33 0 43 -6.5t10 -32.5v-55h-105v53q0 25 10 33t42 8z" />
    <glyph glyph-name="uF0086" unicode="&#xf0086;" 
d="M845 519q19 6 33 3t24.5 -12.5t17 -25t10.5 -34.5l7 -38q5 -28 9.5 -64t6.5 -75.5t0 -73.5t-10.5 -57.5t-26.5 -28.5q-53 -14 -86.5 -12.5t-60.5 8t-54 15t-67 9.5q-42 1 -96 -10t-118.5 -21.5t-138 -12.5t-154.5 18q-10 3 -24.5 6.5t-29 10.5t-27 17.5t-16.5 26.5
q-8 29 2 50.5t27 31.5q22 12 44 13.5t52 4t73.5 13t109.5 40.5q52 24 92 56t68.5 64t46 60t25.5 43q19 39 37 52.5t46 11.5q31 -2 50 -20.5t36.5 -37.5t38 -31t53.5 0zM552 177q28 9 60 14.5t61 5.5q36 0 62.5 -9t47.5 -18q9 -4 16.5 -2.5t10.5 7t-0.5 14.5t-15.5 20
q-9 7 -21 20t-26.5 26t-30.5 22t-32 9t-32.5 -6.5t-33 -17t-34 -23t-35.5 -24.5q-14 -9 -18.5 -17.5t-2.5 -13.5t9 -7.5t15 0.5zM607 487q-12 0 -20 -8.5t-8 -20.5q0 -11 8 -19.5t20 -8.5t20 8.5t8 19.5q0 12 -8 20.5t-20 8.5zM547 408q-12 0 -20.5 -8.5t-8.5 -20.5
t8.5 -20.5t20.5 -8.5t20.5 8.5t8.5 20.5t-8.5 20.5t-20.5 8.5z" />
    <glyph glyph-name="uF0087" unicode="&#xf0087;" 
d="M616 693q16 -20 32 -42q14 -19 28.5 -42t25.5 -46q10 -21 16.5 -35t11 -27.5t7.5 -30t6 -41.5q2 -21 3.5 -62.5t1.5 -89.5t-1 -94.5t-4 -75.5q-5 -45 -35 -71t-77 -31q-59 -7 -125 -8t-120 9q-24 4 -40.5 9.5t-27.5 15t-18 24t-12 37.5q-5 22 -8 66t-3.5 93t0.5 95.5
t4 73.5q2 23 3.5 36.5t4 23t6.5 19t10 25.5q11 29 28.5 58.5t34.5 54.5q19 29 40 56h208zM648 518q-25 28 -51.5 19t-36.5 -53q-5 -21 -4.5 -44.5t4 -46.5t10.5 -43t15 -34q9 -15 22 -23t26.5 -7.5t25.5 9.5t19 29q4 13 6 38t-0.5 53.5t-11 56.5t-24.5 46zM542 913
q17 0 23.5 -6.5t5.5 -20.5l1 -65h25q10 0 16.5 -5t6.5 -16v-37q0 -16 -8 -20t-31 -3h-22q-18 0 -40.5 -0.5t-42.5 -0.5h-29q-20 0 -30.5 3.5t-10.5 23.5v31q0 16 6.5 20.5t24.5 3.5h13v65q0 12 6 19.5t21 7.5h65z" />
    <glyph glyph-name="uF0088" unicode="&#xf0088;" 
d="M427 703q-21 -18 -45 -44q-20 -23 -45 -57.5t-50 -82.5q-26 -48 -39 -93t-18 -80q-6 -41 -6 -77q-10 8 -21 14q-10 5 -23 10t-27 7q-29 4 -52.5 -1.5t-38.5 -14.5q-14 -10 -23 -11.5t-9 13.5q0 34 10 68.5t24 65t28.5 54t23.5 35.5q45 62 98.5 99.5t101.5 58.5
q55 25 111 36zM546 703q56 -10 111 -35q47 -21 101.5 -59t99.5 -99q9 -12 23 -35.5t28 -54t24.5 -65t10.5 -68.5q0 -19 -9.5 -17t-22.5 14q-11 9 -32.5 15t-53.5 3q-15 -2 -28.5 -7.5t-24.5 -10.5q-12 -7 -23 -14q-1 37 -7 77q-6 35 -18.5 79.5t-38.5 93.5q-26 48 -50.5 82
t-44.5 57q-24 26 -45 44zM486 804q19 0 30 -26q3 -8 8 -21t10 -25q5 -14 12 -29q-12 7 -23 13q-10 5 -20 9.5t-17 4.5t-17 -4t-19 -9q-11 -6 -23 -14q6 15 11 30q5 12 9.5 25t7.5 21q6 14 14.5 19.5t16.5 5.5zM463 266q8 11 17.5 12.5t17.5 -0.5q9 -3 18 -9v-297
q0 -44 -18.5 -72.5t-71.5 -28.5q-27 0 -44.5 8.5t-28 21t-14.5 27t-4 26.5q0 17 10 24.5t16 8.5q8 0 18 -7t11 -20q1 -17 8.5 -29.5t27.5 -12.5q25 0 31 17t6 46v285zM486 703q2 0 5.5 -0.5t12.5 -8t24 -24.5t41 -50t44.5 -65.5t31.5 -62t21 -53.5t12 -40q3 -11 8 -29t9 -37
t6 -34.5t-2 -20.5q-11 -14 -22.5 -7.5t-34.5 20.5q-12 7 -31 13t-40 10.5t-43 7t-40 2.5q-37 1 -77.5 -8t-66.5 -20q-25 -11 -34 -20t-20 -6q-13 4 -12.5 31.5t19.5 95.5q12 45 25.5 78t27.5 58.5t27.5 45.5t25.5 37t25.5 33t25.5 28t20.5 19t11.5 7z" />
    <glyph glyph-name="uF0089" unicode="&#xf0089;" 
d="M893 683q6 -26 -3 -40.5t-28 -22.5q-4 1 -10 4q-5 2 -12.5 4t-17.5 4q-6 1 -12.5 1.5t-11.5 0.5q-6 0 -12 -1q-5 6 -10.5 12t-7.5 22q-2 27 13 42.5t39 18.5q25 3 46.5 -9.5t26.5 -35.5zM827 718q2 6 3 12q2 12 -4 30q-5 11 -14 15t-18 4q-11 1 -12.5 10t11.5 13
q15 3 33 -4t27 -30q4 -11 5 -22.5t0 -20.5t-3 -15t-3 -7q-2 -2 -5.5 0.5t-8.5 5.5q-5 4 -11 9zM789 605q48 0 63.5 -13t12 -31.5t-20 -39.5t-33.5 -36q-5 -5 -19 -18.5t-34.5 -33t-44.5 -42.5t-48 -47q-57 -55 -127 -123v-256q1 -9 11.5 -20.5t26.5 -18.5t31.5 -14.5
t15.5 -21.5q0 -11 -14.5 -12.5t-25.5 -1.5h-152q-17 0 -33.5 2t-16.5 13q0 7 6 13t14.5 10t16.5 6.5t12 4.5q40 20 38 40v13v30v40v47v125q-66 63 -123 119q-24 24 -49.5 48.5t-48 46.5t-41.5 40.5t-31 29.5q-21 19 -28.5 37.5t-3.5 33t19.5 22.5t39.5 8h48h94h118h127h115
h85zM644 455h-47l100 93h-211h-78h-70h-50h-21q-20 2 -28.5 -8.5t8.5 -24.5q13 -12 28.5 -26.5t29.5 -28.5q16 -16 33 -32h338q23 19 41 35q16 14 31 27t22 19q19 17 11 29t-34 10z" />
    <glyph glyph-name="uF008A" unicode="&#xf008a;" 
d="M627 683q17 31 28 45.5t17 19.5t16.5 2t16.5 -15t5 -33.5t-7 -61.5q-3 -20 -14 -45t-24 -49.5t-25.5 -45.5t-19.5 -32q-8 -11 -23 -31l-30 -40q-18 -23 -37 -48q11 -18 22 -34q9 -14 17.5 -27.5t13.5 -21.5q16 -26 46.5 -51t60.5 -40q15 -8 44 -17t57 -27.5t48.5 -51
t17.5 -87.5q-2 -44 -20 -75.5t-45 -51t-60.5 -27t-66 -3t-61.5 21.5t-47 47q-18 28 -24.5 55.5t-6.5 55.5t4.5 57t9.5 59q3 17 2.5 28.5t-3 20t-6.5 14.5l-8 12q-4 6 -12 17.5t-16 22.5q-10 13 -21 27l-16 -22q-8 -10 -16.5 -22t-16.5 -23q-17 -23 -18.5 -37.5t3.5 -34.5
q3 -10 7.5 -36.5t3 -61t-12 -72.5t-38.5 -72q-24 -29 -55 -43t-62.5 -15t-62 10t-54.5 31t-39 49t-16 64q-2 53 18 87.5t49 56.5t60.5 34.5t53.5 20.5q21 8 35.5 15.5t25 15t17.5 15.5t15 17t18.5 24.5t21.5 31.5q12 18 25 39q-8 11 -19 25q-9 12 -22.5 28.5t-29.5 36.5
q-16 21 -33 49.5t-31.5 56.5t-25.5 52t-15 35t-8 28.5t-5 34.5t2 31.5t12 20.5q9 5 15.5 4.5t11.5 -5t9.5 -12t11.5 -17.5q3 -5 12.5 -19.5t23 -35t29.5 -45.5l32 -50q38 -59 85 -132q35 60 66 111l26 44q13 22 24.5 41t20 33.5t13.5 22.5zM249 82q-37 0 -62.5 -25.5
t-25.5 -61.5t25.5 -62t62.5 -26q36 0 61.5 26t25.5 62t-25.5 61.5t-61.5 25.5zM694 82q-36 0 -62 -25.5t-26 -61.5q0 -18 7 -34t19 -28t28 -19t34 -7q36 0 61.5 26t25.5 62t-25.5 61.5t-61.5 25.5z" />
    <glyph glyph-name="uF008B" unicode="&#xf008b;" 
d="M233 525q-5 10 -6 21q-1 9 2 18.5t14 15.5q7 4 38.5 5.5t72 2.5t80.5 1h65q24 0 63 -0.5t77.5 -1t69 -1.5t39.5 -3q20 -4 22.5 -19.5t-3.5 -38.5h-534zM238 470q1 -22 1 -44q0 -19 -1.5 -41t-6.5 -41q-6 -24 -20 -62.5t-32.5 -80t-39.5 -79t-41 -60.5q-13 -15 -25 -28
t-19.5 -25t-9.5 -23t4 -23q8 -15 23.5 -16.5t32.5 2.5t33.5 10.5t27.5 7.5q14 1 25 1.5t23.5 -3t28 -12t38.5 -24.5q21 -15 41 -18.5t36.5 -1t29.5 8t19 7.5q15 6 31 15.5t36 15t45.5 1.5t59.5 -25q30 -19 55.5 -22.5t45.5 1t34.5 14t22.5 17.5q6 6 18.5 13.5t29.5 11t40 2
t50 -12.5q28 -12 47 -9t27.5 14t6 27t-16.5 31q-17 17 -35.5 41.5t-37 54.5t-35.5 63.5t-30 69.5q-12 32 -21.5 60t-15 54.5t-7 52.5t2.5 55h-521z" />
    <glyph glyph-name="uF008C" unicode="&#xf008c;" 
d="M579 562q11 24 21.5 43t23 33.5t29 23.5t40.5 12q35 5 66 -2t54 -17q27 -11 50 -28q22 -23 30 -51t6.5 -57.5t-11 -59t-21.5 -54.5t-24.5 -45t-20.5 -30q-11 -14 -11 -23t3 -15q4 -7 12 -12q5 -4 11 -8q11 -8 28 -22q9 -8 6.5 -28t-8.5 -40q-7 -24 -19 -51
q-15 -28 -30 -53q-13 -22 -26.5 -43.5t-23.5 -32.5q-9 -11 -23 -18.5t-30 -10t-31.5 1.5t-27.5 16q-9 8 -18 3t-17 -15q-9 -11 -17 -30q-4 -19 -16 -39q-11 -17 -30.5 -38.5t-54.5 -44.5q-32 -21 -76.5 -27.5t-89.5 -1t-84.5 22t-60.5 42.5q-24 30 -35 57.5t-11.5 52.5t6 46
t16.5 37q7 12 20.5 25.5t29 25.5t32 21.5t28.5 13.5q11 3 14 10t2 14q-1 8 -6 18q-12 11 -16 24q-5 11 -3 26.5t16 34.5q33 42 63.5 77.5t50.5 61.5q17 23 39.5 23t42.5 -13q10 -7 19 -4t15 9q7 7 13 18q8 18 21.5 47.5t33.5 73.5zM573 373q-6 -17 -23.5 -49.5t-42.5 -69
t-56 -71.5t-64 -57t-51.5 -37t-27 -25.5t-10.5 -18t-2 -14.5q0 -9 3.5 -22.5t14.5 -26t32 -21.5t55 -10t59 9t42.5 24.5t28.5 29.5t16 24q3 6 14.5 25.5t27 47t35 59.5t39 63.5t37.5 59.5t31 46q20 27 31.5 57t12 57t-12 48t-39.5 32q-23 8 -42 2t-35 -21t-28 -36t-21 -41.5
t-15 -38t-9 -25.5z" />
    <glyph glyph-name="uF008D" unicode="&#xf008d;" 
d="M462 701h-135q-14 0 -21.5 6.5t-10.5 16.5t-3 22.5t2 23.5q1 11 4 24t8.5 22t14.5 12t22 -5q15 -9 34 -19.5t37 -21t33.5 -19t23.5 -13.5q10 -7 15 -15.5t4 -16t-8 -12.5t-20 -5zM540 702h134q14 0 21.5 6.5t10.5 16.5t3 22.5t-1 23.5q-2 11 -4.5 23.5t-8 21.5t-14.5 12
t-22 -4q-15 -9 -34 -19.5t-37.5 -21t-34 -19t-22.5 -13.5q-11 -7 -16 -15.5t-4 -16t8 -12.5t21 -5zM448 636h-290q-32 0 -41.5 -10.5t-9.5 -33.5v-88q0 -25 10.5 -37t41.5 -12h289v181zM557 636h286q32 0 43.5 -12.5t11.5 -35.5v-86q0 -24 -10.5 -35.5t-41.5 -11.5h-289v181
zM448 402h-307v-164v-65v-61v-52v-36q0 -51 29 -79t90 -28h188v485zM557 402h306v-375q-1 -51 -29 -80.5t-89 -29.5h-188v485z" />
    <glyph glyph-name="uF008E" unicode="&#xf008e;" 
d="M952 449q6 -8 8.5 -24t2 -32.5t-5 -30.5t-11.5 -20q-15 -12 -44.5 -25t-57.5 -24q-2 -26 -8.5 -46t-18.5 -30q-14 -10 -30 -28t-30.5 -40t-26 -46.5t-17.5 -47.5q-3 -14 -17.5 -28.5t-40 -26.5t-62 -19.5t-83.5 -7.5q-86 0 -138 22.5t-66 58.5q-8 21 -16.5 41t-21.5 39
t-31 38t-46 39q-12 8 -18 30t-8 51q-29 11 -59.5 24.5t-45.5 25.5q-8 6 -12 20t-5 30.5t1.5 32.5t8.5 24q5 7 17.5 13t29 11.5t35 10.5t35.5 8q1 22 8.5 50.5t28.5 48.5q8 7 29.5 12t49.5 7t60.5 3t62 1t53.5 -0.5t36 -0.5q14 0 39.5 0.5t56 0t63 -1.5t61 -3.5t50 -8
t29.5 -13.5q8 -9 14 -21t9.5 -25t5.5 -25.5t3 -21.5q18 -4 37.5 -8.5t37 -10.5t30.5 -12.5t18 -13.5zM783 439h-560v-33h560v33z" />
    <glyph glyph-name="uF008F" unicode="&#xf008f;" 
d="M850 25q0 -6 -6 -10t-14 -4t-14 4t-6 10v458q0 6 6 12.5t14 6.5t14 -6t6 -12v-459zM939 25q0 -6 -6 -10t-14 -4t-14 4t-6 10v459q0 6 6 12t14 6t14 -6t6 -12v-459zM529 47q0 -19 -12 -30.5t-31 -11.5h-184q-20 0 -33.5 12.5t-13.5 31.5v44h274v-46zM51 472
q-11 0 -15 -4.5t-4.5 -12t0 -18t0.5 -22.5q-1 -30 9 -68t31.5 -74.5t56.5 -68.5t83 -51q55 -21 112 -26.5t107.5 -2.5t89.5 12t57 17q29 13 59 28.5t56 44t44.5 74.5t23.5 119q2 26 -2 39.5t-24 13.5h-684z" />
    <glyph glyph-name="uF0090" unicode="&#xf0090;" 
d="M532 818q23 0 43.5 -13t27.5 -36t2 -43.5t-17 -33.5q-12 -12 -14 -22t-1 -23q1 -9 16 -21t41 -21q27 -9 41 -20.5t23 -33.5q5 -11 12.5 -30t16 -41t15.5 -45t12 -41q4 -17 6 -34.5t-0.5 -32.5t-11.5 -26t-25 -17q-12 -4 -17.5 -1t-7.5 9.5t-2.5 15t-1.5 16.5
q-2 16 -10.5 33t-19.5 46q-5 14 -8 17.5t-4.5 1t-2 -8t-0.5 -9.5q0 -7 2.5 -26.5t6.5 -49.5t-0.5 -45.5t-4.5 -26.5t2 -29l4 -36q1 -9 1 -26.5t-0.5 -38t-1 -41.5t-0.5 -36t1 -42t2 -56t2 -54t1 -35q1 -11 -1.5 -14.5t-6.5 -4.5t-10 1q1 -2 1 -5q0 -6 1 -9q2 -13 -7.5 -22.5
t-23.5 -6.5q-11 2 -16.5 8.5t-7.5 14.5q-3 9 -2 19l-10 2q-5 2 -8 19q0 4 -1 16.5t-1.5 29t-1.5 33.5t-2 29t-3 33.5t-4 44t-4 44t-2 33.5q-1 9 -3 22t-4 25.5t-5 21.5t-5 9t-5 -8.5t-6 -20.5t-5 -26t-2 -24q0 -12 -1.5 -32t-4 -42.5t-4.5 -43.5t-3 -35t-2 -30.5t-2 -32.5
t-2 -29.5t-1 -20.5q0 -8 -2.5 -11t-5.5 -5q-4 -2 -8 -1v-11q0 -5 -1 -9.5t-3 -7.5q-5 -6 -17.5 -12t-25.5 4q-5 5 -7 11.5t-2 12.5q0 7 2 15h-5q-8 0 -11.5 3.5t-4.5 9t0 12t1 12.5q1 6 2 27.5t2 47t2 50.5t1 39v31q0 17 -0.5 35t-0.5 36v32v45q0 16 2 27q3 11 0 24.5
t-3 30.5q-1 17 4 39t6 53q0 15 -2 18.5t-5 0.5t-6.5 -9.5t-5.5 -10.5q-2 -5 -6 -15.5t-8 -22t-6.5 -21.5t-2.5 -13t0.5 -11t-1 -16t-6.5 -13.5t-15 -5.5q-20 1 -35.5 17.5t-13.5 54.5q1 19 10.5 51.5t21.5 66.5t24 62t18 39q13 21 31.5 26.5t32.5 10.5t29.5 14.5t17.5 24.5
q1 12 0 21t-9 18q-14 13 -19 32.5t-1 39.5q6 33 27 46t42 13z" />
    <glyph glyph-name="uF0091" unicode="&#xf0091;" 
d="M656 29q0 -11 -6.5 -20t-18.5 -9l-238 1q-11 -1 -17.5 9t-6.5 19q0 8 6 18t18 10h74v63h-333q-33 0 -53.5 18.5t-20.5 50.5v497q0 32 19.5 48t51.5 16h738q32 0 51 -17.5t19 -46.5v-497q0 -31 -17.5 -48.5t-52.5 -17.5h-311v-67h72q11 0 18.5 -8.5t7.5 -18.5zM870 640
h-750v-351h750v351zM553 247h-85v-76h85v76z" />
    <glyph glyph-name="uF0092" unicode="&#xf0092;" 
d="M662 317q0 -28 -10.5 -52.5t-28.5 -42.5t-42 -28.5t-52 -10.5t-52 10.5t-42 28.5t-28.5 42.5t-10.5 52.5q0 27 10.5 51.5t28.5 42.5t42 28.5t52 10.5t52 -10.5t42 -28.5t28.5 -42.5t10.5 -51.5zM167 51q-28 0 -50 5t-37 17t-23 32.5t-8 51.5v338q0 56 26.5 78t83.5 22
h168q16 0 26.5 6t17 16t11.5 23.5t11 27.5q10 26 35 45t57 19h93q37 0 60.5 -20.5t31.5 -43.5q11 -30 29 -51.5t38 -21.5h127q44 1 70 -24t26 -73v-343q0 -51 -27 -77.5t-72 -26.5h-694zM527 526q-44 0 -82 -16.5t-66 -45t-44.5 -66.5t-16.5 -81q0 -44 16.5 -82t44.5 -66
t66 -44.5t82 -16.5q43 0 81 16.5t66 44.5t44.5 66t16.5 82q0 43 -16.5 81t-44.5 66.5t-66 45t-81 16.5zM597 634q0 16 -1.5 25t-20.5 9h-83q-19 1 -20.5 -8t-1.5 -26q-1 -19 2 -27t20 -8h83q19 0 20.5 9t1.5 26z" />
    <glyph glyph-name="uF0093" unicode="&#xf0093;" 
d="M857 611q20 5 32.5 -8t20.5 -31q9 -18 22.5 -60t17.5 -104q4 -61 -4.5 -94t-13.5 -33q-3 0 -14 1t-27.5 2t-38 1t-45.5 -1q-9 0 -29.5 0.5t-47.5 -1.5t-58.5 -10t-63.5 -26q-37 -21 -63.5 -38t-60 -30t-81.5 -20t-128 -7q-46 0 -86 2.5t-70 6.5q-35 4 -66 10
q-11 14 -18 31q-6 14 -8.5 33.5t5.5 41.5q7 19 21 31.5t32 19t39 7.5t42 -1q43 -5 82.5 4.5t74 26t63.5 38t52 42.5t37.5 40.5t23.5 36t14 30.5t8 23q8 22 24.5 30t36.5 2q32 -10 71.5 -13t90.5 -1q27 1 45.5 3.5t31 5t21 5t15.5 4.5zM555 540q-11 0 -19.5 -8.5t-8.5 -20.5
q0 -11 8.5 -19.5t19.5 -8.5q12 0 20.5 8.5t8.5 19.5q0 12 -8.5 20.5t-20.5 8.5zM492 461q-12 0 -20.5 -8.5t-8.5 -20.5q0 -13 8.5 -21.5t20.5 -8.5q13 0 21.5 8.5t8.5 21.5q0 12 -8.5 20.5t-21.5 8.5zM915 245h-19h-36h-44h-45q-21 0 -36.5 -0.5t-19.5 -0.5
q-11 0 -19.5 -8.5t-8.5 -30.5q0 -18 10 -26t21 -8h195q11 0 20.5 7t9.5 29q0 20 -8 28.5t-20 9.5z" />
    <glyph glyph-name="uF0094" unicode="&#xf0094;" 
d="M44 594v-149l644 -170v169zM751 451v-401q12 -2 27 -2q13 0 30 2.5t37 10.5q23 9 36.5 25t20.5 31q8 18 9 37l29 428q-7 -15 -18 -29q-9 -13 -21.5 -27t-29.5 -25q-20 -14 -41.5 -23.5t-38.5 -15.5q-20 -7 -40 -11zM53 641l879 77q-3 -28 -13 -55q-8 -23 -23 -49t-40 -46
q-33 -27 -61.5 -40.5t-50.5 -19.5q-26 -7 -47 -7zM581 642q-11 0 -19 -8t-8 -19t8 -19t19 -8t19 8t8 19t-8 19t-19 8zM688 594q-12 0 -20 -8.5t-8 -19.5q0 -12 8 -20t20 -8q11 0 19.5 8t8.5 20q0 11 -8.5 19.5t-19.5 8.5zM724 668q-11 0 -19 -8t-8 -19t8 -19t19 -8t19 8
t8 19t-8 19t-19 8zM819 662q-11 0 -18.5 -7.5t-7.5 -18.5t7.5 -19t18.5 -8t19 8t8 19t-8 18.5t-19 7.5zM461 642q-11 0 -19 -8t-8 -19t8 -19t19 -8t19 8t8 19t-8 19t-19 8zM688 213l-644 179v-79q0 -35 13 -54t48 -31q4 -2 31.5 -10t69 -21t93.5 -29t106 -32
q126 -39 283 -86v163z" />
    <glyph glyph-name="uF0095" unicode="&#xf0095;" 
d="M959 184q0 -24 -17.5 -42.5t-48.5 -18.5h-778q-29 0 -48 16.5t-19 48.5v414q0 22 18.5 39.5t52.5 17.5h772q34 0 51 -20.5t17 -45.5v-409zM817 577q-6 0 -10.5 -4.5t-4.5 -11.5t4.5 -11t10.5 -4h78q6 0 10.5 4t4.5 11t-4.5 11.5t-10.5 4.5h-78zM816 508q-15 0 -15 -16
q0 -6 4 -10.5t11 -4.5h78q7 0 11.5 4.5t4.5 10.5q0 16 -16 16h-78zM879 307q0 11 -7 18t-18 7t-18 -7t-7 -18t7 -18t18 -7t18 7t7 18zM752 596l-633 1v-414h632zM804 231q10 0 17.5 7.5t7.5 18.5t-7.5 18t-17.5 7q-11 0 -18.5 -7t-7.5 -18t7.5 -18.5t18.5 -7.5zM854 181
q11 0 18 7t7 18t-7 18t-18 7t-18 -7t-7 -18t7 -18t18 -7zM905 231q10 0 17.5 7.5t7.5 18.5t-7.5 18t-17.5 7q-11 0 -18.5 -7t-7.5 -18t7.5 -18.5t18.5 -7.5z" />
    </font>
</defs>
</svg>
